<?xml version="1.0" standalone="no"?>
<!DOCTYPE svg PUBLIC "-//W3C//DTD SVG 20010904//EN"
 "http://www.w3.org/TR/2001/REC-SVG-20010904/DTD/svg10.dtd">
<svg version="1.0" xmlns="http://www.w3.org/2000/svg"
 width="1148.000000pt" height="1280.000000pt" viewBox="0 0 1148.000000 1280.000000"
 preserveAspectRatio="xMidYMid meet">

<g transform="translate(0.000000,1280.000000) scale(0.100000,-0.100000)"
fill="#000000" stroke="none">
<path d="M4836 10538 c-7 -13 -19 -41 -26 -63 -18 -59 -18 -58 -63 -20 -28 24
-50 35 -71 34 l-31 0 40 -18 c51 -23 131 -110 172 -187 33 -61 64 -165 62
-205 -1 -13 -7 5 -15 40 -36 163 -152 319 -256 345 -24 5 -32 0 -69 -46 -39
-50 -99 -157 -99 -178 0 -5 15 -10 33 -10 55 0 131 -44 209 -120 l73 -72 -65
56 c-102 89 -248 151 -263 112 -9 -23 0 -39 31 -59 27 -16 26 -16 -64 -17 -71
0 -95 -4 -105 -16 -10 -13 -10 -17 1 -24 26 -16 136 -30 233 -30 62 0 98 -4
103 -12 8 -13 -222 -3 -295 13 -24 5 -45 8 -46 7 -1 -2 -5 -32 -7 -67 -4 -59
-3 -64 19 -74 23 -10 105 -5 292 20 25 3 44 3 41 0 -10 -10 -204 -38 -278 -40
l-74 -1 6 -28 c4 -18 1 -28 -7 -28 -6 0 -1 -9 13 -20 14 -10 23 -20 20 -23 -3
-2 -78 -56 -167 -121 -90 -64 -163 -120 -163 -123 0 -3 15 6 33 19 129 97 289
209 294 205 10 -11 -8 -25 -186 -153 -99 -71 -178 -130 -176 -132 2 -2 85 56
185 128 162 117 206 143 186 112 -3 -5 -75 -60 -161 -121 -85 -62 -155 -114
-155 -117 0 -3 5 -2 10 1 16 10 12 0 -26 -65 -20 -34 -34 -64 -31 -66 2 -2 22
27 45 65 22 39 36 71 32 73 -5 2 59 52 142 111 133 96 173 119 154 89 -3 -5
-60 -48 -126 -97 -67 -48 -119 -89 -117 -92 3 -2 -22 -50 -55 -105 -32 -55
-57 -102 -55 -105 5 -4 127 200 127 214 0 7 211 163 232 171 4 2 8 -1 8 -7 0
-5 -42 -41 -92 -79 -93 -69 -93 -70 -177 -216 -46 -81 -82 -149 -79 -151 2 -2
45 67 96 153 89 153 94 159 168 211 73 52 78 54 134 52 82 -3 177 16 238 49
50 27 54 28 80 13 39 -22 92 -10 133 30 26 26 30 27 17 7 -26 -41 -63 -63
-109 -63 -27 0 -47 6 -52 15 -8 12 -20 9 -76 -18 -50 -25 -92 -37 -171 -48
-58 -8 -101 -14 -96 -15 5 -1 1 -11 -10 -23 -10 -13 -12 -17 -4 -10 14 12 80
17 80 6 0 -6 -224 -391 -272 -466 -19 -30 -34 -45 -43 -41 -18 6 -17 8 142
281 69 118 123 216 120 218 -2 2 -61 -94 -131 -214 -145 -247 -159 -268 -175
-258 -14 9 -4 29 137 269 61 103 107 187 103 187 -4 0 -40 -57 -81 -127 -126
-218 -181 -304 -191 -298 -5 4 -9 12 -9 18 0 7 50 97 110 201 61 104 109 191
107 193 -5 4 -220 -354 -225 -374 -5 -21 -15 -15 -62 33 -43 44 -106 83 -160
99 l-25 7 25 -28 c19 -22 15 -20 -16 7 -27 24 -55 38 -84 43 -23 4 -45 5 -47
3 -4 -5 116 -123 370 -363 86 -81 157 -152 157 -156 0 -18 -24 -4 -112 63
-224 171 -320 241 -324 236 -3 -2 -6 -14 -9 -26 -2 -12 -32 -55 -67 -95 -55
-65 -67 -75 -97 -75 -43 -1 -154 53 -186 91 l-24 29 -40 -36 c-52 -48 -59 -70
-30 -101 l23 -24 -26 -28 c-43 -46 -64 -85 -50 -90 20 -6 52 -43 72 -82 24
-48 20 -102 -11 -135 -13 -14 -45 -48 -71 -76 -25 -27 -70 -76 -99 -109 -29
-33 -54 -58 -57 -56 -2 3 -15 -8 -29 -24 -13 -16 -46 -41 -73 -56 -27 -15 -48
-30 -46 -33 2 -3 -6 -6 -17 -7 -12 -1 -40 -4 -62 -8 -31 -5 -45 -2 -64 12 -21
17 -22 22 -12 53 10 31 57 96 114 158 22 24 22 24 1 13 -12 -6 -69 -61 -128
-123 -82 -87 -106 -118 -106 -139 0 -23 32 -58 180 -200 160 -153 179 -175
166 -189 -23 -27 -43 -74 -51 -118 -8 -50 1 -54 42 -20 15 13 48 29 73 36 29
9 58 28 85 56 28 30 51 44 79 49 21 4 40 5 42 3 3 -3 -4 -20 -15 -38 -11 -19
-24 -59 -30 -89 l-10 -55 67 -69 c38 -39 62 -70 55 -73 -7 -2 -9 -11 -6 -20 5
-13 9 -11 24 8 l19 24 0 -42 c0 -34 3 -41 15 -37 11 5 15 -1 15 -20 0 -44 25
-91 66 -122 64 -50 68 -49 32 8 -80 124 -74 131 11 13 34 -46 67 -87 73 -91
17 -11 0 46 -24 80 -11 16 -16 26 -11 23 19 -12 24 52 7 84 -17 34 -82 78
-143 99 -39 13 -109 76 -97 87 8 8 126 -18 160 -34 23 -12 30 -12 37 -2 5 9
11 5 20 -15 12 -25 14 -26 20 -9 7 16 8 16 8 1 1 -10 8 -18 17 -18 8 0 20 -13
25 -29 12 -34 36 -32 41 2 3 17 10 9 31 -35 15 -31 27 -62 27 -68 0 -16 29
-70 38 -70 4 0 6 37 5 82 l-2 83 14 -89 c11 -73 17 -93 37 -108 34 -26 43 -22
19 8 -27 35 -27 57 0 24 l21 -25 -5 27 c-3 20 1 28 16 32 16 4 19 11 15 40 -2
20 1 38 7 40 6 3 5 5 -2 5 -7 1 -10 8 -7 16 6 14 8 13 20 -2 12 -17 13 -16 14
7 1 24 2 24 17 -8 12 -23 22 -31 34 -27 12 4 19 -2 23 -21 4 -16 12 -24 21
-20 7 2 16 0 18 -7 2 -7 8 -8 13 -4 4 4 3 16 -4 27 -7 12 -8 21 -2 25 5 3 15
-3 22 -15 16 -25 46 -26 65 -2 7 9 13 13 12 7 -1 -5 -1 -17 1 -25 1 -11 4 -9
10 5 8 19 9 19 9 -2 1 -23 21 -33 21 -11 0 6 3 8 7 5 3 -4 13 -1 22 6 22 19
51 28 51 17 0 -6 -7 -10 -16 -10 -8 0 -13 -4 -10 -9 7 -10 31 -9 42 2 4 4 18
-8 31 -25 12 -18 23 -25 23 -17 0 12 2 12 9 0 5 -8 10 -9 12 -2 3 7 9 7 19 0
13 -8 13 -11 -3 -23 -12 -9 -14 -16 -8 -21 6 -3 11 -2 11 3 0 17 39 21 51 6 7
-8 18 -38 24 -67 l13 -52 12 30 c6 17 12 38 13 48 1 9 5 17 10 17 4 0 5 5 2
10 -3 6 -1 10 4 10 6 0 11 -7 11 -15 0 -18 20 -20 21 -2 0 6 4 3 9 -8 8 -18 9
-18 9 -2 1 10 5 16 11 12 5 -3 7 -12 4 -19 -3 -8 0 -17 7 -22 9 -5 10 -2 6 9
-3 9 -2 19 3 22 6 4 10 0 11 -7 0 -7 4 -4 9 7 8 18 9 18 10 -5 1 -23 2 -23 10
-5 6 14 9 15 10 5 0 -8 8 -24 17 -35 15 -19 15 -19 9 13 -6 33 9 46 17 15 4
-15 5 -15 6 2 1 17 3 18 11 5 8 -12 10 -10 10 10 l1 25 14 -25 c13 -23 14 -23
15 -4 0 23 29 67 30 45 0 -8 6 -11 16 -7 8 3 13 2 10 -2 -2 -4 2 -18 10 -32
13 -25 14 -25 10 10 -3 19 -7 44 -11 55 -4 15 -3 14 6 -3 7 -13 18 -21 26 -18
9 4 13 -4 13 -28 0 -24 5 -35 18 -38 15 -4 17 1 14 33 -4 35 -2 37 20 32 20
-6 21 -4 11 9 -11 12 -9 17 12 26 14 6 25 20 26 29 0 13 3 11 10 -7 8 -20 12
-22 19 -10 8 12 10 10 10 -9 0 -20 2 -21 15 -11 12 10 15 9 15 -6 0 -15 5 -12
20 11 l20 30 0 -27 c0 -15 4 -30 10 -33 6 -3 7 1 4 10 -5 13 -1 15 25 10 47
-8 72 -26 59 -42 -12 -15 8 -47 24 -37 6 4 8 -3 4 -17 -6 -19 -5 -21 4 -7 10
17 4 48 -10 48 -4 0 -7 11 -7 24 0 24 0 24 26 8 l26 -16 -27 30 c-38 41 -35
50 7 25 19 -11 37 -16 40 -11 7 11 -5 40 -16 40 -5 0 -9 8 -9 17 0 14 5 12 28
-9 38 -36 59 -26 30 15 -11 18 -15 26 -8 20 19 -17 35 -17 21 0 -13 17 -5 28
15 20 16 -6 10 20 -10 46 -19 25 46 -20 92 -63 24 -23 40 -33 36 -23 -3 9 -11
17 -17 17 -6 0 -8 3 -5 6 4 3 16 1 27 -6 15 -7 21 -7 21 0 0 8 6 8 20 0 18
-10 19 -9 10 15 -16 41 -12 48 13 22 29 -33 98 -59 113 -43 9 8 8 18 -3 40
l-15 28 36 -27 c30 -23 35 -24 29 -9 -7 18 -6 18 19 2 25 -17 26 -17 22 5 -2
12 -2 17 2 10 4 -10 8 -10 19 0 7 7 11 15 8 19 -2 4 10 5 28 1 30 -6 31 -5 20
16 -15 28 5 25 31 -4 l18 -20 -7 20 c-6 18 -5 19 11 5 17 -14 18 -12 12 20 -5
29 -4 31 4 12 14 -33 31 -17 25 24 -4 36 1 37 38 6 16 -15 17 -14 11 4 -7 17
-6 17 9 5 9 -7 17 -10 17 -5 0 5 5 1 11 -8 5 -10 14 -18 19 -18 17 0 6 25 -20
42 -14 10 -20 18 -13 18 6 0 15 -4 18 -10 3 -5 11 -10 16 -10 6 0 7 6 3 13 -6
9 -4 9 8 -1 13 -10 17 -10 22 0 3 7 4 4 1 -8 -4 -14 0 -21 10 -21 9 0 14 9 13
24 -1 12 -6 23 -10 23 -4 0 -8 7 -8 17 0 14 3 13 18 -4 9 -11 23 -18 31 -15 8
2 11 0 8 -5 -3 -5 -1 -15 4 -23 8 -13 12 -12 24 4 8 10 12 22 10 27 -3 4 -1
10 4 14 6 3 8 11 5 18 -2 7 4 17 15 24 16 10 20 8 31 -15 28 -61 40 -77 55
-77 9 0 20 -6 24 -14 10 -16 21 -2 22 31 2 32 -4 51 -21 65 -21 18 1 15 24 -2
29 -22 33 -19 41 28 l7 42 9 -32 c11 -37 23 -41 53 -16 19 16 19 15 -1 -7 -23
-27 -27 -66 -7 -74 8 -3 11 2 9 15 -2 11 0 17 5 14 4 -3 13 10 19 28 9 25 14
29 21 17 7 -10 8 -2 6 27 -4 33 -2 41 10 36 10 -4 11 -9 4 -17 -6 -8 -6 -24 0
-44 11 -39 10 -34 10 -77 0 -27 3 -33 15 -29 11 5 14 2 9 -12 -6 -15 -2 -13
17 6 14 14 23 31 21 39 -3 7 1 17 9 23 11 8 10 9 -3 4 -18 -5 -26 10 -8 16 5
2 6 9 1 17 -7 10 -13 11 -32 1 -24 -11 -24 -11 1 9 26 21 45 28 36 12 -3 -4 1
-17 9 -27 13 -18 13 -17 11 9 -6 50 12 28 19 -25 l7 -52 13 30 c12 27 19 20
16 -16 -1 -11 1 -11 9 3 6 9 8 22 5 27 -3 6 -2 10 4 10 5 0 14 -12 20 -27 l11
-28 -3 32 c-2 21 2 34 11 38 8 3 11 12 8 21 -3 9 -2 12 5 9 6 -4 8 -13 5 -21
-3 -8 1 -14 10 -14 8 0 12 4 9 10 -3 5 5 15 19 22 16 7 26 19 26 32 0 18 4 16
21 -12 23 -36 38 -37 19 -2 -6 12 -9 25 -5 28 3 3 8 -4 12 -16 3 -12 10 -22
15 -22 5 0 7 -4 4 -8 -8 -13 21 -49 44 -55 23 -6 27 14 6 32 -17 14 -39 71
-27 71 4 0 13 -6 20 -12 11 -11 12 -8 7 15 -6 26 -5 27 14 17 11 -6 20 -16 20
-21 0 -6 7 -9 14 -6 9 4 17 -2 21 -14 4 -10 11 -19 16 -19 6 0 7 9 4 20 -4 11
-2 20 4 20 6 0 11 7 11 16 0 8 5 12 10 9 6 -4 10 7 10 27 0 25 3 29 10 18 9
-13 10 -13 10 0 0 9 8 4 18 -12 16 -27 28 -32 63 -29 8 1 22 -14 32 -34 9 -20
22 -33 27 -30 6 3 15 -6 22 -22 10 -25 12 -26 15 -7 2 11 -1 40 -6 64 -5 25
-9 45 -8 46 1 1 28 -13 60 -32 l57 -34 -5 28 c-3 15 -2 21 1 14 3 -6 10 -10
15 -7 5 4 6 0 3 -8 -6 -16 10 -30 38 -34 12 -2 16 2 12 15 -4 9 4 4 18 -12 30
-35 78 -44 85 -15 5 18 6 19 19 2 12 -17 13 -16 14 5 0 29 9 28 37 -5 18 -22
22 -24 23 -10 0 20 20 24 20 4 0 -22 33 -53 53 -49 9 2 17 -1 17 -7 0 -6 4
-11 9 -11 5 0 8 8 6 18 -2 9 -4 24 -4 32 -1 13 -2 13 -11 0 -5 -8 -10 -10 -10
-5 0 25 15 33 35 19 11 -8 19 -17 18 -19 -2 -3 -3 -11 -3 -17 0 -10 2 -10 8 0
6 9 14 7 30 -8 l22 -21 0 21 c0 12 7 28 15 36 13 14 15 13 15 -10 0 -35 20
-44 21 -9 1 15 1 32 0 36 -1 5 3 6 7 3 5 -3 7 -18 4 -32 -3 -19 -1 -25 7 -20
6 4 11 14 11 22 0 8 5 14 11 14 6 0 19 10 30 23 13 16 18 18 19 7 0 -13 1 -13
11 0 9 12 10 11 6 -7 -3 -13 -1 -23 4 -23 5 0 9 5 9 11 0 5 4 8 8 5 5 -3 9 2
9 11 0 9 -9 18 -19 21 -10 2 -15 9 -12 14 3 5 17 -1 30 -13 l24 -23 16 22 c8
12 20 20 25 17 5 -4 9 1 9 9 0 9 4 16 10 16 10 0 3 -27 -13 -48 -5 -7 -7 -16
-3 -19 4 -4 11 -1 16 6 7 12 11 11 26 -3 13 -14 19 -15 25 -4 6 9 9 6 10 -12
1 -15 3 -19 6 -9 2 10 17 19 34 21 26 4 27 3 16 -11 -23 -27 -32 -45 -17 -36
10 6 12 3 8 -13 -4 -12 -2 -20 3 -16 5 3 9 -11 9 -30 0 -19 4 -38 10 -41 6 -3
7 1 4 9 -3 9 -1 16 4 16 12 0 -3 55 -21 78 -5 6 -5 12 -1 12 14 0 32 -34 40
-74 l6 -37 15 28 c8 15 12 36 9 46 -3 13 0 17 10 13 8 -3 12 -2 9 3 -3 5 -1
12 5 16 5 3 10 -2 10 -12 0 -14 2 -15 9 -4 7 11 9 11 14 0 5 -12 7 -12 15 0 8
11 11 9 15 -10 l4 -24 2 25 c1 20 3 22 11 10 8 -13 10 -12 10 3 0 9 5 17 10
17 6 0 14 -8 17 -17 4 -10 13 -24 21 -32 11 -11 13 -9 10 14 -2 20 2 28 15 30
10 2 17 -3 18 -13 1 -10 4 -7 9 8 4 14 8 19 9 13 1 -7 6 -13 11 -13 6 0 10 19
11 43 1 36 2 38 9 17 7 -21 8 -22 10 -5 1 18 2 18 8 3 11 -28 102 57 102 95 0
15 5 27 11 27 7 0 9 -9 6 -21 -5 -19 -4 -19 11 -7 9 8 98 81 197 163 185 152
205 170 205 191 0 7 -74 108 -165 225 -128 165 -164 219 -160 236 4 16 -20 59
-85 157 -49 75 -92 136 -94 136 -2 0 -78 14 -167 31 -90 16 -171 28 -180 26
-11 -3 -34 11 -59 35 -41 37 -42 40 -38 89 3 27 1 52 -4 55 -4 3 -6 9 -3 14 3
5 0 12 -6 16 -8 4 -9 3 -5 -4 4 -7 1 -12 -8 -12 -20 0 -30 17 -14 23 8 4 7 6
-3 6 -17 1 -29 29 -29 69 0 20 -5 23 -32 22 -18 -1 -49 -1 -68 0 -30 2 -28 4
17 10 76 11 83 16 83 49 0 28 -31 71 -51 71 -4 0 -19 4 -33 10 l-26 9 25 37
c32 47 40 79 28 107 -9 20 -10 18 -17 -16 -4 -20 -12 -37 -18 -37 -9 0 -7 26
8 63 3 10 -8 22 -34 37 -44 25 -55 42 -72 108 -10 38 -17 46 -56 63 -54 24
-94 19 -178 -22 -33 -16 -61 -28 -62 -26 -2 2 -10 46 -19 97 -21 125 -23 130
-46 130 -15 0 -19 -7 -19 -31 0 -17 -4 -28 -10 -24 -5 3 -10 17 -10 30 0 21
-5 24 -57 29 -32 3 -74 4 -93 2 -19 -2 -45 1 -58 7 -29 13 -51 -6 -62 -54 l-8
-34 -1 30 c-1 17 6 41 15 54 16 22 16 23 -4 12 -29 -16 -37 -70 -22 -153 6
-38 10 -71 7 -74 -2 -3 -16 14 -30 38 -36 62 -140 158 -169 157 -22 -2 -22 -2
-2 -6 12 -2 30 -13 40 -25 l19 -21 -32 17 c-50 25 -79 21 -93 -13 -6 -16 -20
-37 -30 -46 -10 -9 -16 -23 -13 -31 3 -8 -1 -14 -10 -14 -30 0 -77 -35 -77
-56 0 -12 21 -50 46 -85 l46 -64 -40 39 c-23 22 -50 58 -61 80 -15 32 -21 37
-26 24 -3 -9 1 -30 9 -47 29 -55 24 -60 -45 -44 -34 8 -64 13 -68 11 -4 -2
-50 -52 -102 -113 -52 -60 -129 -150 -171 -200 -52 -60 -78 -98 -78 -115 0
-24 1 -23 18 7 9 18 90 118 180 222 l163 189 62 -14 c80 -19 101 -38 32 -29
l-50 7 -57 -69 c-31 -38 -96 -112 -143 -164 -84 -91 -145 -169 -145 -186 0 -4
13 12 29 36 16 24 63 80 103 125 41 45 107 118 147 164 40 45 80 82 89 82 12
0 13 -3 4 -12 -20 -20 -13 -32 8 -13 15 13 35 18 81 17 34 -1 64 -3 67 -6 3
-4 -11 -6 -30 -6 -80 0 -96 -9 -166 -94 -37 -44 -103 -122 -148 -172 -90 -100
-138 -167 -132 -184 2 -6 17 9 33 34 30 45 293 346 302 346 3 0 3 -14 -1 -30
-4 -22 -2 -29 6 -24 31 19 -46 -78 -152 -193 -47 -50 -94 -106 -104 -125 -22
-38 -12 -29 27 24 15 20 82 95 148 167 99 107 129 133 161 142 22 5 47 8 56 6
9 -2 -4 -10 -30 -17 -26 -7 -53 -18 -59 -26 -6 -8 -18 -14 -25 -14 -8 0 -14
-7 -14 -16 0 -8 4 -12 10 -9 6 4 7 -1 3 -11 -5 -13 -3 -15 8 -9 21 13 -35 -59
-116 -150 -124 -138 -168 -205 -135 -205 6 0 10 6 10 13 0 7 24 42 53 78 53
68 224 253 213 232 -8 -16 4 -44 16 -37 25 15 -17 -40 -93 -122 -79 -86 -149
-179 -149 -198 0 -5 17 17 38 50 29 44 238 273 225 246 -2 -3 2 -11 8 -19 10
-11 15 -11 27 -1 28 23 -29 -53 -112 -146 -86 -98 -139 -174 -130 -187 3 -5
-34 -56 -81 -114 -80 -97 -89 -105 -121 -105 l-35 0 20 28 c11 15 55 70 99
122 44 52 78 97 76 99 -2 2 -5 2 -7 0 -18 -25 -148 -182 -171 -206 -29 -32
-30 -32 -44 -12 -13 18 -8 27 65 115 106 130 116 144 109 151 -3 3 -15 -5 -25
-19 -76 -96 -173 -208 -181 -208 -5 0 -14 9 -20 20 -9 17 2 34 73 122 46 57
86 110 91 118 9 18 -13 -7 -107 -122 -40 -49 -74 -88 -77 -88 -3 0 -11 9 -17
19 -10 17 -1 33 77 130 49 61 85 113 81 116 -5 2 -38 -33 -74 -78 -123 -152
-111 -141 -131 -118 -20 22 -21 22 89 156 58 71 68 85 62 85 -3 0 -37 -39 -75
-87 -92 -116 -105 -128 -121 -109 -16 19 -10 30 78 140 39 49 69 92 65 95 -6
6 -11 0 -108 -118 -74 -92 -93 -82 -35 18 23 40 39 74 37 76 -2 3 -21 -25 -42
-60 -42 -72 -53 -83 -62 -61 -3 9 14 50 41 97 26 44 45 83 42 85 -3 3 -26 -31
-52 -76 -43 -74 -65 -92 -65 -53 0 8 23 53 50 100 28 47 50 90 50 96 0 11
-120 -182 -120 -193 0 -3 19 -28 43 -55 41 -47 47 -61 83 -194 3 -9 -1 -6 -7
7 -7 12 -16 22 -20 22 -10 0 9 -48 28 -70 7 -9 20 -33 29 -55 l16 -39 -30 -25
c-41 -35 -53 -61 -40 -86 5 -11 -16 8 -47 43 -31 34 -65 66 -74 72 -13 6 -43
-3 -114 -35 -82 -37 -96 -41 -100 -27 -2 10 5 27 16 40 l20 22 -26 0 c-17 0
-30 8 -38 22 l-12 22 -14 -27 c-7 -15 -25 -30 -39 -33 -24 -6 -24 -7 -8 -25
10 -11 15 -28 12 -43 -5 -25 -5 -25 23 -9 16 9 32 14 35 10 10 -10 11 -9 -118
-70 -109 -51 -118 -54 -118 -35 0 12 7 30 17 40 15 17 15 18 -9 18 -17 0 -29
8 -37 27 -9 19 -15 23 -20 14 -12 -19 -21 22 -9 43 8 14 5 19 -11 23 -11 3
-22 12 -25 22 -2 9 -2 -3 1 -25 3 -25 1 -44 -6 -48 -6 -4 -11 0 -11 8 0 11
-10 16 -32 17 -30 1 -31 2 -8 8 25 7 41 41 20 41 -10 0 -9 4 0 15 7 8 24 15
37 15 21 0 24 4 20 22 -4 15 1 30 15 45 l21 23 -26 0 c-14 0 -31 8 -36 18 -9
14 -12 14 -19 4 -14 -21 -25 34 -12 58 8 16 8 20 -4 20 -24 0 -27 -15 -11 -60
20 -56 19 -59 -10 -66 -28 -7 -32 -19 -10 -28 8 -3 15 -17 15 -31 0 -22 -4
-25 -32 -25 -19 0 -28 4 -21 8 19 12 25 98 9 115 -11 11 -12 17 -3 26 8 8 4
11 -16 11 -15 0 -30 7 -33 15 -4 8 -11 15 -16 15 -5 0 -17 9 -27 21 -10 12
-36 24 -66 30 -27 5 -52 15 -57 22 -9 14 18 38 36 31 7 -3 18 2 25 10 9 11 19
13 37 6 21 -8 24 -7 24 13 0 17 11 28 45 45 28 14 45 28 45 39 0 10 -34 146
-75 303 -41 157 -75 290 -75 295 1 32 27 -52 91 -296 39 -150 73 -275 74 -277
2 -2 13 18 25 45 26 60 81 146 88 138 3 -2 12 1 21 8 8 6 -6 -27 -32 -75 -26
-47 -47 -94 -47 -103 0 -16 2 -16 23 -2 15 9 29 12 37 7 19 -12 29 -4 24 18
-5 23 97 185 119 188 22 3 22 3 -14 -61 -22 -40 -26 -53 -15 -49 9 3 16 10 16
15 0 15 62 110 68 105 3 -3 12 0 21 7 8 7 3 -9 -12 -37 -38 -68 -26 -69 19 -2
20 31 39 54 42 51 3 -3 12 1 20 8 10 8 8 -3 -7 -30 -12 -24 -35 -50 -51 -58
-17 -9 -30 -23 -30 -31 0 -14 2 -14 16 -3 9 7 30 12 46 11 26 -2 30 0 25 18
-3 11 -1 23 4 26 5 3 7 10 4 15 -7 11 34 73 43 65 3 -3 12 0 21 7 10 8 8 0 -6
-25 -30 -52 -16 -56 17 -4 15 23 34 43 43 43 13 0 10 -12 -14 -58 -42 -84 -36
-85 15 -4 25 39 48 70 53 70 4 0 14 4 21 9 16 10 -2 -29 -55 -117 -19 -32 -33
-60 -30 -63 3 -3 32 39 64 93 33 54 64 98 69 98 5 0 15 4 23 9 15 10 -37 -89
-95 -181 -18 -28 -30 -54 -27 -57 3 -3 40 51 82 121 46 77 83 128 94 129 9 1
17 1 17 -1 0 -6 -123 -220 -142 -248 -11 -15 -18 -32 -16 -38 2 -6 41 52 87
130 85 144 95 181 49 181 -18 0 -17 5 16 65 45 82 33 86 -14 4 -38 -65 -63
-93 -79 -88 -6 2 16 51 49 108 33 57 58 106 56 108 -2 3 -32 -43 -65 -100 -34
-58 -67 -109 -74 -115 -17 -13 -49 -23 -44 -14 2 4 41 71 87 150 45 78 81 145
78 147 -2 2 -18 -19 -34 -48 -150 -255 -157 -265 -180 -270 -13 -2 -22 -1 -20
2 2 3 52 89 110 189 59 101 106 186 103 188 -3 3 -17 -17 -32 -43 -147 -256
-210 -353 -227 -353 -18 0 -18 1 1 38 17 33 181 314 233 400 11 17 16 32 11
32 -4 0 -68 -103 -141 -229 -73 -126 -141 -236 -152 -246 -54 -49 -27 14 106
240 167 286 172 295 154 279 -6 -7 -79 -126 -160 -265 -131 -224 -188 -304
-204 -288 -3 3 58 113 135 244 186 318 194 332 176 315 -8 -8 -82 -130 -164
-270 -186 -318 -174 -300 -196 -300 -22 0 -26 -7 155 305 83 143 154 254 176
274 l37 34 -35 -25 c-42 -30 -57 -53 -228 -345 -155 -265 -155 -266 -177 -261
-12 2 17 59 130 253 160 274 192 330 176 321 -5 -4 -16 -19 -24 -34 -7 -15
-80 -141 -161 -280 -129 -220 -184 -297 -201 -280 -2 2 68 127 155 277 88 151
160 281 160 289 0 17 -13 8 -16 -11 -1 -7 -71 -131 -157 -277 -135 -231 -195
-316 -211 -299 -3 2 65 123 151 269 184 316 178 304 165 296 -6 -3 -78 -122
-161 -264 -174 -299 -172 -295 -195 -291 -13 3 14 56 139 268 85 145 155 266
155 268 0 18 -37 -41 -166 -261 -86 -148 -153 -251 -158 -246 -5 5 -6 19 -3
32 8 30 255 450 270 460 7 4 13 12 13 18 1 5 2 14 3 20 0 5 33 33 71 61 39 28
70 52 70 54 0 2 -46 -27 -102 -64 -141 -93 -193 -114 -298 -117 l-85 -3 75 9
c76 8 130 24 191 56 36 18 209 143 209 151 0 2 -29 -16 -64 -41 -75 -55 -108
-60 -51 -10 35 32 36 33 7 14 -46 -31 -54 -15 -12 22 33 28 33 29 3 9 -35 -23
-43 -26 -43 -12 0 6 29 31 65 56 36 26 65 49 65 52 0 3 -30 -16 -66 -42 -70
-51 -101 -53 -44 -3 33 28 33 29 3 9 -41 -28 -46 -27 -38 10 5 24 4 30 -5 24
-8 -5 -11 -3 -8 6 3 8 1 22 -4 32 -8 16 -11 16 -41 -7 -34 -26 -67 -41 -187
-86 -41 -15 -84 -31 -95 -35 -14 -6 -17 -5 -10 3 6 6 61 31 124 56 153 61 213
101 181 121 -5 3 -21 28 -36 55 l-27 49 -45 -39 c-50 -44 -203 -142 -211 -135
-5 6 -11 2 79 57 90 56 160 114 160 134 0 23 -41 16 -99 -16 -30 -17 -55 -30
-56 -30 -1 0 0 13 3 30 5 37 -18 49 -52 27 -34 -23 -90 -112 -119 -192 -29
-79 -35 -76 -11 6 25 82 58 141 104 182 l41 38 -32 27 c-80 67 -190 121 -223
109 -8 -3 -26 -38 -42 -79 -31 -81 -44 -103 -44 -71 0 29 20 82 47 126 22 36
23 37 3 37 -11 0 -26 -10 -34 -22z m273 -449 c-6 -11 -24 -28 -41 -37 -16 -10
-55 -32 -85 -50 -31 -17 -50 -25 -43 -16 8 8 44 33 82 55 38 22 72 47 75 55 3
8 9 14 14 14 6 0 5 -9 -2 -21z m-182 -61 c-3 -8 -6 -5 -6 6 -1 11 2 17 5 13 3
-3 4 -12 1 -19z m-142 -58 l80 -7 -86 -2 c-64 -1 -90 3 -105 15 -18 14 -18 15
6 8 14 -4 61 -10 105 -14z m2486 -75 c-9 -19 -19 -34 -23 -35 -8 0 2 42 15 58
19 24 24 11 8 -23z m-1812 -47 c-6 -13 -61 -108 -122 -212 -95 -163 -112 -186
-120 -169 -8 18 9 53 95 200 65 110 114 183 129 190 32 17 32 17 18 -9z m1840
-24 c15 -15 14 -16 -4 -9 -11 4 -42 14 -70 21 l-50 14 54 -5 c33 -3 61 -11 70
-21z m-2139 -19 c-30 -32 -77 -40 -121 -22 l-34 14 56 -5 c48 -4 59 -1 85 21
36 31 46 26 14 -8z m168 -87 c-123 -212 -124 -213 -131 -187 -7 26 -7 25 85
181 60 102 77 121 110 127 4 0 -25 -54 -64 -121z m1492 100 c0 -38 43 -112 95
-162 34 -34 40 -42 18 -27 -41 28 -97 93 -117 136 -18 37 -21 75 -6 75 6 0 10
-10 10 -22z m-1578 -50 c-61 -108 -67 -118 -74 -118 -18 0 -5 51 26 103 33 55
35 71 6 45 -12 -11 -12 -10 -1 5 8 9 27 17 43 17 l30 0 -30 -52z m70 20 c-126
-213 -125 -212 -133 -192 -5 13 4 39 26 81 61 111 84 143 106 143 21 0 21 0 1
-32z m2408 -23 c0 -1 -21 -3 -47 -4 -27 0 -64 -5 -83 -11 -46 -13 -48 -13 -23
5 31 22 94 33 126 22 15 -5 27 -10 27 -12z m-2547 -15 c-10 -17 -19 -26 -21
-20 -4 10 25 50 35 50 2 0 -4 -14 -14 -30z m-459 -102 c-21 -41 -245 -426
-285 -489 -17 -26 -39 -49 -50 -52 -14 -4 -19 -1 -16 7 17 44 313 535 333 554
34 30 40 23 18 -20z m52 14 c17 -11 -285 -522 -315 -534 -19 -7 -22 -5 -17 8
5 14 261 455 299 516 13 20 17 21 33 10z m134 -202 c28 -107 64 -243 80 -302
16 -60 25 -108 20 -108 -4 0 -15 28 -24 63 -9 34 -45 174 -81 311 -35 137 -60
245 -55 240 5 -5 32 -97 60 -204z m-381 -51 c-180 -309 -186 -319 -204 -319
-8 0 -15 4 -15 8 0 5 69 127 154 272 97 167 162 267 177 276 13 7 25 11 27 9
2 -1 -61 -112 -139 -246z m297 237 c5 -12 -177 -336 -262 -468 -25 -39 -62
-54 -50 -20 14 36 291 502 298 502 5 0 11 -6 14 -14z m-253 -63 c-231 -400
-291 -497 -311 -498 -26 -2 -39 -28 145 287 80 136 152 249 161 251 10 3 21 5
25 6 4 0 -5 -20 -20 -46z m-173 -200 c-171 -294 -175 -300 -195 -300 -22 0
-22 1 138 276 126 216 167 272 186 255 2 -2 -56 -106 -129 -231z m2936 216
c23 -11 48 -27 56 -36 11 -14 11 -15 -1 -9 -7 5 -39 21 -70 37 -63 33 -50 40
15 8z m274 13 c0 -4 -23 -15 -50 -25 -28 -10 -65 -30 -83 -45 -57 -48 -73 -57
-42 -23 39 43 79 71 124 87 43 16 51 17 51 6z m-2876 -244 c-110 -188 -130
-215 -153 -206 -5 1 50 104 122 227 113 194 132 221 139 201 7 -19 -12 -58
-108 -222z m2093 216 c-3 -3 -12 -4 -19 -1 -8 3 -5 6 6 6 11 1 17 -2 13 -5z
m951 -11 c33 -8 8 -23 -40 -23 -39 0 -52 15 -20 23 27 7 35 7 60 0z m-3003
-232 c-62 -104 -101 -160 -115 -164 -11 -3 -20 -3 -20 0 0 7 188 332 203 351
9 11 12 10 19 -7 6 -16 -14 -56 -87 -180z m105 107 c0 -12 5 -36 12 -54 10
-29 8 -37 -32 -102 -24 -39 -52 -73 -62 -75 -10 -3 -18 -2 -18 1 0 3 23 46 51
95 27 49 48 91 46 93 -2 3 -32 -42 -65 -99 -40 -69 -68 -106 -82 -110 -17 -4
-20 -2 -15 11 13 35 149 262 157 262 4 0 8 -10 8 -22z m2862 -16 c5 -5 -5 -7
-22 -4 -54 8 -118 -8 -170 -43 -35 -24 -47 -28 -40 -15 5 10 38 33 72 50 53
26 70 31 108 26 24 -4 48 -10 52 -14z m-733 -42 l21 -45 -25 28 c-14 15 -25
38 -25 49 0 27 3 24 29 -32z m241 16 c0 -13 3 -33 6 -43 5 -13 4 -15 -4 -8
-17 15 -27 75 -13 75 6 0 11 -11 11 -24z m-458 -23 c-16 -21 -32 -47 -35 -58
-4 -16 -5 -14 -6 7 -1 15 10 39 25 57 37 44 51 38 16 -6z m-1329 -74 c-22 -42
-50 -79 -68 -90 -16 -10 -31 -17 -33 -15 -6 7 100 166 108 161 5 -3 11 -1 15
5 3 5 8 10 11 10 3 0 -12 -32 -33 -71z m-553 -30 c-11 -19 -58 -55 -64 -48 -2
2 10 28 27 58 28 49 31 52 39 32 4 -13 4 -31 -2 -42z m426 14 c-34 -65 -49
-86 -41 -55 4 13 8 34 9 46 4 30 15 48 26 41 5 -3 11 -1 15 5 3 5 8 10 11 10
2 0 -7 -21 -20 -47z m1590 -42 c-9 -16 -16 -37 -16 -46 0 -8 -4 -15 -10 -15
-22 0 -3 74 24 92 18 12 18 1 2 -31z m-115 -10 c-13 -23 9 -36 29 -18 32 29
-41 -65 -99 -128 -71 -77 -151 -182 -151 -197 0 -6 18 16 39 48 30 45 237 273
223 246 -1 -3 7 -11 18 -17 19 -10 17 -14 -37 -79 -128 -151 -183 -221 -189
-241 -7 -20 -193 -249 -199 -243 -1 2 -7 13 -14 25 -10 20 -3 32 65 115 43 51
84 101 92 111 8 9 13 17 9 17 -3 0 -44 -47 -92 -105 -47 -58 -90 -105 -94
-105 -5 0 -14 7 -21 15 -14 17 -9 25 99 153 34 41 61 84 61 96 0 12 24 51 53
87 49 61 209 239 215 239 1 0 -2 -9 -7 -19z m-1888 -28 c-4 -11 -3 -14 5 -9
19 11 14 -1 -24 -70 -40 -72 -44 -76 -64 -64 -10 6 -3 25 34 84 46 74 62 93
49 59z m-69 -64 c-21 -40 -46 -74 -55 -76 -19 -5 -32 -62 -24 -103 5 -22 4
-22 -4 -5 -21 44 -12 89 34 168 25 43 50 75 55 72 5 -3 11 -1 15 5 3 5 8 10
11 10 3 0 -12 -32 -32 -71z m-63 -11 c-27 -48 -47 -74 -61 -76 -11 -2 -20 0
-20 5 0 14 76 123 82 118 3 -3 11 1 18 10 26 31 20 13 -19 -57z m-836 12 c27
-27 47 -50 44 -50 -3 0 -27 23 -54 50 -27 28 -47 50 -44 50 3 0 27 -22 54 -50z
m773 -20 c-21 -38 -39 -60 -50 -60 -10 0 -18 3 -18 7 0 15 63 102 70 98 5 -3
11 -1 15 5 3 5 8 10 11 10 3 0 -9 -27 -28 -60z m195 -60 c-33 -56 -38 -60 -46
-42 -7 15 0 35 29 85 36 60 40 64 47 43 6 -18 -1 -38 -30 -86z m-259 48 c-15
-29 -31 -64 -35 -78 -8 -21 -8 -20 -5 10 4 34 4 34 -7 8 -6 -16 -21 -29 -36
-33 -14 -4 -35 -14 -45 -23 -18 -16 -18 -16 -7 6 6 12 17 22 23 22 6 0 8 3 5
7 -4 3 -16 -2 -27 -12 -31 -28 -24 -6 20 60 22 33 40 56 40 51 0 -5 7 -2 16 5
11 9 8 -4 -10 -40 -38 -74 -26 -75 19 -1 20 33 40 58 45 55 5 -3 11 -1 15 5 3
5 8 10 11 10 2 0 -8 -24 -22 -52z m2430 36 c3 -8 2 -12 -4 -9 -6 3 -10 10 -10
16 0 14 7 11 14 -7z m-170 -8 c-4 -9 2 -16 15 -18 19 -3 18 -7 -19 -48 -39
-45 -51 -68 -27 -53 6 4 -23 -34 -67 -85 -43 -51 -81 -92 -83 -92 -7 0 8 19
80 105 l59 70 -61 -64 c-33 -35 -77 -89 -98 -120 -20 -31 -77 -104 -126 -163
-74 -89 -92 -106 -107 -98 -9 5 -21 6 -25 2 -30 -28 31 56 105 145 50 59 90
112 90 119 0 6 20 38 45 69 45 58 213 245 220 245 3 0 2 -6 -1 -14z m910 -10
c-5 -14 -47 -46 -59 -46 -9 0 48 59 57 60 4 0 5 -6 2 -14z m-3309 -63 c-47
-85 -61 -101 -76 -86 -8 8 0 28 28 72 22 34 42 59 45 56 3 -3 11 1 18 10 26
31 21 13 -15 -52z m2846 -10 c12 -38 30 -85 40 -105 13 -26 15 -36 6 -32 -20
7 -67 110 -74 160 -3 24 -3 44 0 44 3 0 15 -30 28 -67z m611 47 c-13 -10 -30
-16 -39 -13 -11 4 -6 9 18 18 46 17 47 17 21 -5z m-3523 -50 c-21 -40 -38 -60
-50 -60 -11 0 -19 2 -19 5 0 14 63 104 70 100 5 -3 11 -1 15 5 3 5 8 10 11 10
3 0 -9 -27 -27 -60z m2746 -118 c-6 -6 -35 44 -45 79 -6 19 -10 50 -9 69 1 29
6 19 29 -55 16 -49 27 -91 25 -93z m-2226 126 c1 -3 -15 -16 -36 -28 l-36 -21
15 23 c8 13 21 34 28 48 13 23 14 24 21 5 4 -11 8 -23 8 -27z m-591 -30 c-18
-35 -34 -66 -36 -69 -1 -3 14 -28 35 -54 l37 -49 -32 22 c-17 13 -35 35 -38
49 -7 25 -8 25 -22 7 -13 -18 -14 -18 -7 5 5 17 4 21 -5 16 -13 -8 17 52 49
100 12 17 21 24 21 15 1 -12 3 -11 11 3 5 9 12 17 15 17 2 0 -10 -28 -28 -62z
m-59 -2 c-29 -49 -34 -46 -9 5 12 23 24 39 26 36 3 -2 -5 -21 -17 -41z m-194
-6 c21 -22 37 -40 34 -40 -3 0 -23 18 -44 40 -21 22 -37 40 -34 40 3 0 23 -18
44 -40z m3816 -17 c-5 -11 -18 -26 -27 -34 -17 -13 -17 -13 -1 11 9 13 17 33
17 44 0 15 3 17 11 9 8 -8 8 -17 0 -30z m34 7 c-10 -11 -20 -18 -23 -15 -3 3
3 14 13 25 10 11 20 18 23 15 3 -3 -3 -14 -13 -25z m-2995 5 c-27 -14 -36 -13
-25 4 3 6 16 11 28 11 21 -1 21 -1 -3 -15z m-487 -43 c-3 -12 -9 -22 -14 -22
-12 0 -11 7 2 32 13 25 20 19 12 -10z m3527 18 c0 -5 -2 -10 -4 -10 -3 0 -8 5
-11 10 -3 6 -1 10 4 10 6 0 11 -4 11 -10z m-3010 -77 c0 -18 -4 -33 -10 -33
-5 0 -10 21 -10 48 0 34 3 43 10 32 5 -8 10 -30 10 -47z m-372 -3 c-12 -16
-23 -30 -25 -30 -2 0 3 14 12 30 9 17 20 30 26 30 5 0 0 -13 -13 -30z m542
-38 c-1 -20 -8 -48 -16 -62 -8 -14 -13 -17 -10 -7 3 10 6 41 6 68 0 31 4 48
10 44 6 -3 10 -23 10 -43z m-273 -21 c4 -31 0 -53 -21 -94 -14 -30 -35 -62
-47 -73 -14 -12 -9 -1 12 31 31 45 34 57 34 122 0 76 13 84 22 14z m2389 50
c-8 -12 23 -23 37 -14 17 10 -39 -60 -167 -212 -60 -71 -117 -139 -125 -150
-38 -49 23 17 140 154 142 166 183 211 174 194 -9 -19 5 -64 19 -56 22 14
-185 -242 -268 -330 -14 -15 -26 -30 -26 -33 0 -20 39 19 165 166 80 93 151
173 158 177 8 4 7 1 -1 -10 -16 -19 -6 -41 14 -33 11 4 12 2 5 -12 -12 -21
-187 -230 -243 -289 -21 -24 -35 -43 -31 -43 5 0 51 51 103 113 154 181 191
219 206 206 8 -6 21 -9 29 -5 11 4 14 2 9 -6 -10 -16 -245 -297 -277 -330 -14
-15 -22 -30 -18 -32 10 -6 52 39 161 169 126 152 161 186 176 174 7 -6 18 -8
24 -4 5 3 10 3 10 -2 0 -10 -217 -273 -278 -337 -26 -27 -41 -45 -34 -41 18
10 69 66 199 220 98 116 160 182 140 148 -4 -7 1 -14 13 -18 11 -3 20 -10 20
-14 0 -8 -198 -248 -276 -335 -24 -27 -42 -51 -39 -54 8 -8 35 19 139 143 147
176 208 238 217 223 7 -10 13 -10 31 1 20 13 19 10 -7 -25 -35 -47 -262 -318
-298 -356 -14 -16 -23 -28 -19 -28 4 0 50 50 102 112 171 202 262 303 271 300
5 -1 9 2 9 8 0 6 -6 10 -12 10 -7 0 -24 10 -38 21 -26 21 -16 21 32 -3 19 -9
30 -23 34 -45 6 -30 -4 -44 -157 -225 -90 -106 -171 -200 -180 -209 -9 -9 -18
-21 -20 -27 -2 -5 -64 -76 -138 -157 -116 -128 -136 -146 -146 -132 -7 9 -16
13 -20 9 -30 -26 51 73 149 183 64 71 116 134 116 140 -1 5 -40 -33 -88 -85
-111 -121 -206 -218 -198 -203 4 6 -1 16 -11 22 -21 11 -34 -8 126 174 63 70
112 129 110 131 -2 2 -63 -62 -135 -143 -75 -84 -137 -144 -145 -142 -8 2 -19
4 -26 4 -17 0 -4 17 136 175 112 128 127 148 117 155 -2 1 -55 -56 -119 -128
-63 -71 -130 -143 -148 -160 -19 -16 -31 -26 -27 -21 4 5 0 15 -10 22 -20 14
-33 -5 123 174 60 69 115 134 123 145 25 33 -46 -43 -162 -174 -89 -101 -111
-120 -118 -107 -5 9 -14 14 -20 10 -25 -16 19 41 137 174 69 79 125 148 123
154 -2 6 -58 -52 -125 -128 -111 -128 -186 -206 -169 -177 3 6 -1 16 -11 21
-15 9 -13 15 22 58 39 48 165 193 214 247 13 15 22 27 19 27 -3 0 -68 -70
-143 -155 -120 -137 -161 -180 -140 -145 4 6 1 18 -6 26 -9 11 -9 18 3 32 8 9
59 69 114 132 125 145 129 150 116 150 -6 0 -66 -63 -133 -141 -107 -124 -123
-139 -132 -123 -6 11 -14 22 -19 25 -8 5 41 66 180 227 30 34 52 62 49 62 -3
0 -60 -63 -127 -140 -67 -77 -123 -140 -124 -140 -2 0 -3 6 -3 13 0 6 -3 19
-7 27 -4 10 30 58 104 144 87 102 108 132 99 142 -13 16 -21 6 120 172 57 67
109 122 116 122 7 0 18 7 25 15 7 8 17 15 22 15 12 0 -24 -46 -159 -205 -95
-110 -117 -142 -95 -133 5 2 49 50 98 108 155 184 246 284 220 241z m-1096
-103 c0 -3 18 -25 41 -49 33 -34 38 -44 26 -51 -19 -10 -76 13 -99 41 -10 11
-25 46 -34 78 -9 32 -19 65 -21 73 -3 8 15 -7 41 -35 25 -27 46 -53 46 -57z
m1325 15 c-3 -23 -13 -47 -22 -55 -15 -11 -16 -11 -9 7 4 11 10 47 13 79 5 51
8 56 15 35 5 -13 7 -43 3 -66z m-3290 57 c10 -11 16 -20 13 -20 -3 0 -13 9
-23 20 -10 11 -16 20 -13 20 3 0 13 -9 23 -20z m3475 -73 c0 -29 -28 -93 -37
-84 -2 3 1 15 7 28 8 14 10 44 7 83 -6 58 -6 60 8 31 8 -16 14 -43 15 -58z
m468 58 c-6 -5 -99 -13 -94 -7 8 8 80 19 89 14 5 -2 7 -5 5 -7z m-3879 -70 c0
-5 -9 1 -19 14 -11 13 -20 28 -20 35 0 6 9 0 20 -14 11 -14 20 -29 19 -35z
m728 -52 c-14 -26 -35 -57 -48 -68 -20 -18 -20 -16 4 15 14 19 34 62 44 95 14
46 19 53 21 33 2 -15 -8 -48 -21 -75z m2813 52 c39 -26 47 -35 31 -35 -12 0
-38 16 -59 35 -47 44 -38 44 28 0z m-3395 15 c15 -6 7 -9 -30 -9 -29 -1 -60
-8 -73 -17 -12 -8 -22 -11 -22 -5 0 29 83 49 125 31z m3590 -20 c-3 -5 -14
-10 -23 -9 -14 0 -13 2 3 9 27 11 27 11 20 0z m-77 -25 c-3 -3 -9 2 -12 12 -6
14 -5 15 5 6 7 -7 10 -15 7 -18z m497 -85 c-11 -5 -36 -8 -55 -8 l-35 1 40 7
c57 10 74 10 50 0z m-3979 -9 c-3 -5 -20 -11 -38 -13 -18 -3 -42 -9 -52 -13
-14 -6 -17 -5 -12 4 5 7 18 16 30 21 28 12 79 12 72 1z m3364 -76 c1 11 30
-24 30 -36 0 -5 -66 -86 -147 -182 -82 -95 -164 -193 -184 -218 -21 -24 -39
-42 -42 -39 -3 3 75 100 174 217 99 118 178 220 178 230 -1 17 -2 17 -6 -1 -5
-18 -319 -397 -351 -423 -10 -8 -19 -9 -27 -3 -8 6 -39 -22 -101 -93 -148
-169 -169 -189 -187 -186 -13 3 21 47 135 173 84 92 228 256 320 364 167 195
168 196 162 236 l-5 41 25 -45 c14 -25 25 -40 26 -35z m508 68 c-10 -2 -26 -2
-35 0 -10 3 -2 5 17 5 19 0 27 -2 18 -5z m-1968 -10 c0 -14 -20 -39 -20 -25 0
6 -4 12 -9 12 -6 0 -7 -15 -4 -33 4 -24 0 -37 -16 -51 -24 -22 -28 -20 -40 21
-10 36 5 61 46 73 37 11 43 11 43 3z m1887 1 c-3 -3 -12 -4 -19 -1 -8 3 -5 6
6 6 11 1 17 -2 13 -5z m-3212 -59 c24 -53 15 -50 -22 6 -22 35 -26 46 -13 39
9 -5 25 -26 35 -45z m198 -24 c14 -55 3 -63 -14 -10 -9 29 -11 48 -5 46 5 -2
14 -18 19 -36z m53 13 c-30 -21 -45 -16 -16 6 14 10 27 16 30 13 3 -2 -4 -11
-14 -19z m-706 -15 c74 -17 74 -17 28 -18 -49 -1 -128 24 -128 41 0 5 6 6 13
1 6 -4 46 -15 87 -24z m1378 4 c-4 -15 24 -83 33 -83 10 0 5 41 -7 62 -4 7 13
-6 38 -30 27 -26 48 -57 54 -80 l10 -39 -80 -74 c-63 -58 -99 -82 -161 -109
-44 -18 -86 -38 -92 -43 -28 -21 -10 10 30 52 23 25 35 40 27 34 -71 -50 -142
-108 -158 -128 -10 -13 -32 -27 -48 -31 -16 -4 -69 -22 -117 -41 -48 -18 -91
-31 -96 -29 -4 3 -20 -4 -37 -15 -43 -28 -55 -25 -49 13 4 18 8 34 10 37 3 2
-1 11 -8 20 -11 14 -10 14 6 2 14 -11 17 -23 13 -43 -6 -31 5 -36 24 -13 7 9
20 15 29 14 33 -3 41 2 41 23 0 12 7 30 17 40 15 17 15 18 -5 18 -12 0 -26 9
-32 19 -13 25 -13 34 0 26 6 -3 10 -1 10 5 0 20 49 60 75 60 21 0 25 5 25 29
0 16 7 34 15 41 21 17 19 29 -3 23 -10 -2 -24 3 -31 11 -12 14 -6 19 43 41 31
14 87 41 126 60 42 21 67 29 64 21 -3 -8 -17 -17 -31 -21 -24 -6 -25 -7 -8
-25 12 -13 15 -27 11 -45 -6 -25 -6 -26 18 -10 15 10 33 14 50 9 25 -6 26 -4
21 18 -4 17 0 29 16 43 l21 20 -28 5 c-55 10 -39 33 53 77 88 41 115 50 111
36z m941 -20 c-45 -58 -159 -191 -175 -203 -13 -11 -12 -6 5 15 34 45 174 205
179 205 3 0 -2 -8 -9 -17z m-2471 -22 c-74 -84 -155 -170 -446 -473 l-324
-338 -54 0 c-35 0 -75 -9 -113 -24 -32 -14 -67 -23 -79 -20 l-20 6 20 34 c41
70 135 90 186 41 l29 -28 248 263 c334 354 543 565 561 565 10 0 8 -7 -8 -26z
m463 -30 c-12 -8 -51 -4 -51 5 0 2 15 4 33 4 22 0 28 -3 18 -9z m445 -47 c-11
-8 -29 -13 -40 -13 -20 2 -20 2 1 6 12 2 27 11 34 19 6 8 15 12 18 8 3 -3 -3
-12 -13 -20z m977 9 c-7 -2 -19 -2 -25 0 -7 3 -2 5 12 5 14 0 19 -2 13 -5z
m-202 -40 c13 -16 12 -17 -3 -4 -10 7 -18 15 -18 17 0 8 8 3 21 -13z m-1486
-24 c23 -7 15 -8 -34 -5 -38 3 -70 10 -78 19 -13 13 -9 14 34 5 26 -5 62 -14
78 -19z m1852 -166 c-2 -37 -3 -9 -3 62 0 72 1 102 3 68 2 -34 2 -93 0 -130z
m1393 -461 c-9 -14 -10 -13 -4 7 3 14 2 21 -3 18 -11 -7 -23 151 -23 297 0
134 12 286 21 280 5 -3 10 1 11 8 2 7 4 -123 5 -290 2 -202 0 -309 -7 -320z
m-2420 558 c0 -5 -11 -12 -25 -16 -28 -7 -32 -19 -10 -28 17 -6 20 -51 5 -61
-5 -3 -10 0 -10 8 0 8 -7 20 -15 27 -23 19 -18 39 18 60 37 23 37 23 37 10z
m-535 -31 c15 -15 -18 -10 -45 6 l-25 15 30 -6 c17 -4 34 -11 40 -15z m413
-19 c6 -16 9 -30 7 -30 -5 0 -35 56 -35 65 0 15 19 -8 28 -35z m-736 -27 c-37
-44 -537 -567 -714 -748 -18 -19 -19 -19 -12 -1 6 15 4 17 -7 11 -19 -11 29
40 409 443 203 214 329 341 338 338 7 -3 16 -1 19 4 4 6 9 10 12 10 3 0 -17
-26 -45 -57z m585 -22 c21 -6 46 -11 56 -11 9 0 17 -5 17 -11 0 -17 -67 -1
-109 26 -20 12 -47 35 -61 51 -18 21 -14 18 17 -8 23 -20 59 -41 80 -47z
m1450 -38 c-2 -21 -4 -4 -4 37 0 41 2 58 4 38 2 -21 2 -55 0 -75z m-1846 27
c-13 -11 -33 -20 -45 -20 -17 1 -14 4 14 20 45 25 61 25 31 0z m1606 -105 c-2
-5 -9 7 -16 28 -7 21 -9 46 -5 55 5 12 9 4 15 -28 5 -25 7 -49 6 -55z m207 47
c2 -4 -11 -8 -29 -8 -21 0 -30 3 -22 8 16 10 44 10 51 0z m59 -16 c-10 -13
-20 -20 -21 -15 -5 12 17 39 30 39 5 0 1 -11 -9 -24z m-1763 -21 c-13 -14 -33
-25 -44 -24 -21 0 -21 0 -1 8 11 5 29 18 39 30 11 12 22 19 24 16 3 -3 -5 -16
-18 -30z m80 1 c0 -19 -9 -44 -20 -57 l-20 -24 15 37 c8 21 15 47 15 58 0 11
2 20 5 20 3 0 5 -15 5 -34z m99 -29 c1 -33 -15 -67 -31 -67 -9 0 -9 3 0 12 7
7 12 37 13 68 0 40 3 50 9 35 5 -11 9 -33 9 -48z m68 19 c18 -9 42 -16 55 -16
15 0 19 -3 12 -10 -8 -8 -20 -7 -40 0 -38 14 -94 53 -94 64 0 5 8 2 18 -6 9
-9 31 -23 49 -32z m223 24 c0 -5 -5 -10 -11 -10 -5 0 -7 5 -4 10 3 6 8 10 11
10 2 0 4 -4 4 -10z m908 -27 c1 -34 0 -36 -10 -16 -6 12 -8 29 -5 37 10 24 13
19 15 -21z m1724 20 c18 -16 21 -16 48 1 33 19 34 18 20 -18 -8 -21 -5 -28 17
-46 l26 -20 -36 0 c-32 0 -36 -3 -43 -32 l-7 -33 -14 33 c-11 26 -19 32 -43
32 -36 0 -39 13 -6 28 22 10 24 15 16 42 -10 34 -5 37 22 13z m358 -48 c38 22
41 18 20 -18 -20 -34 -20 -34 0 -52 29 -26 25 -37 -13 -30 -30 6 -34 3 -49
-27 -17 -33 -17 -33 -17 -6 -1 42 -11 58 -36 58 -36 0 -38 16 -4 30 29 13 31
16 25 54 l-6 41 27 -32 c26 -30 29 -31 53 -18z m-1594 -37 c-14 -24 -26 -36
-26 -28 0 19 39 84 47 77 3 -3 -7 -25 -21 -49z m-397 8 c15 -8 34 -22 41 -31
9 -11 -4 -7 -36 10 -27 14 -59 24 -71 22 -12 -2 -20 0 -17 4 8 14 52 11 83 -5z
m276 -14 c-6 -5 -23 -14 -40 -20 l-30 -13 25 21 c23 18 66 30 45 12z m-1375
-148 c34 -36 16 -22 -47 36 -57 51 -103 95 -103 97 0 9 95 -76 150 -133z m130
-80 c19 -21 -5 -2 -55 43 -49 45 -106 98 -125 119 -19 21 6 2 55 -43 50 -45
106 -98 125 -119z m2128 86 c0 -77 -10 -120 -23 -100 -12 17 -10 173 1 192 12
19 22 -26 22 -92z m-2263 -71 c44 -45 65 -70 47 -56 -63 51 -222 201 -222 210
0 13 85 -62 175 -154z m1705 125 c0 -2 -11 -4 -25 -4 -14 0 -25 4 -25 9 0 4
11 6 25 3 14 -2 25 -6 25 -8z m-633 -39 c20 -8 34 -17 32 -19 -7 -6 -99 18
-99 26 0 12 27 9 67 -7z m603 -39 c0 -8 -9 -24 -20 -37 l-20 -24 17 38 c18 40
23 45 23 23z m-120 -20 c0 -8 -9 -24 -20 -37 l-20 -24 17 37 c20 41 23 45 23
24z m1417 -72 c14 -9 13 -12 -6 -17 -14 -3 -21 -13 -21 -29 -1 -23 -1 -23 -16
-3 -8 11 -24 19 -35 17 -18 -3 -19 -1 -7 17 10 17 10 25 0 41 -14 22 -9 25 18
10 13 -7 21 -5 31 7 13 15 14 14 17 -7 2 -14 11 -29 19 -36z m-5087 42 c0 -8
-61 -12 -66 -4 -3 4 11 8 30 8 20 0 36 -2 36 -4z m259 -10 c-12 -10 -60 -16
-54 -6 3 5 18 10 32 10 15 0 24 -2 22 -4z m2989 -61 c-3 -3 -13 7 -23 22 l-17
28 23 -22 c12 -12 20 -25 17 -28z m-928 -50 c35 -36 62 -65 59 -65 -2 0 -34
29 -69 65 -35 36 -62 65 -59 65 2 0 34 -29 69 -65z m687 -37 c-3 -8 -6 -5 -6
6 -1 11 2 17 5 13 3 -3 4 -12 1 -19z m2177 7 c-4 -8 -8 -15 -10 -15 -2 0 -4 7
-4 15 0 8 4 15 10 15 5 0 7 -7 4 -15z m-2004 -11 c0 -8 -5 -12 -10 -9 -6 4 -8
11 -5 16 9 14 15 11 15 -7z m-749 -21 c13 -16 12 -17 -3 -4 -10 7 -18 15 -18
17 0 8 8 3 21 -13z m639 -26 c0 -2 -10 -12 -22 -23 l-23 -19 19 23 c18 21 26
27 26 19z m-2676 -16 c3 -4 -3 -16 -13 -25 -15 -14 -19 -15 -24 -3 -9 24 25
49 37 28z m2934 -36 c-3 -3 -9 2 -12 12 -6 14 -5 15 5 6 7 -7 10 -15 7 -18z
m-2667 -50 c29 -18 38 -32 41 -60 5 -45 2 -48 -31 -25 -28 21 -141 63 -149 55
-5 -5 -62 63 -62 75 0 15 166 -22 201 -45z m1434 -85 c3 -5 1 -10 -4 -10 -6 0
-11 5 -11 10 0 6 2 10 4 10 3 0 8 -4 11 -10z m329 -18 c3 -5 -1 -9 -9 -9 -8 0
-12 4 -9 9 3 4 7 8 9 8 2 0 6 -4 9 -8z m-659 -62 c3 -5 1 -10 -4 -10 -6 0 -11
5 -11 10 0 6 2 10 4 10 3 0 8 -4 11 -10z"/>
<path d="M6175 8790 c11 -37 21 -54 28 -43 3 5 -3 22 -14 39 -19 27 -20 28
-14 4z"/>
<path d="M5932 8416 c-6 -14 -23 -28 -37 -32 -29 -7 -32 -19 -9 -32 11 -6 15
-17 12 -30 l-6 -21 42 20 c74 38 104 79 57 79 -10 0 -25 10 -33 21 l-14 21
-12 -26z"/>
<path d="M6026 8405 c4 -8 8 -15 10 -15 2 0 4 7 4 15 0 8 -4 15 -10 15 -5 0
-7 -7 -4 -15z"/>
<path d="M5796 8313 c-11 -12 -6 -33 8 -33 19 0 28 27 11 33 -7 3 -16 3 -19 0z"/>
<path d="M5652 8285 c-6 -13 -23 -27 -37 -31 -29 -7 -32 -19 -9 -28 12 -5 15
-14 10 -37 -3 -17 -2 -29 2 -27 56 27 82 43 82 52 0 5 10 20 22 33 l21 23 -31
0 c-21 0 -32 5 -32 14 0 26 -17 26 -28 1z"/>
<path d="M5501 8218 c-1 -9 4 -20 9 -23 6 -4 10 -12 9 -18 -1 -7 -1 -21 0 -32
2 -18 3 -18 16 5 12 22 12 27 -4 40 -10 8 -21 22 -24 30 -4 12 -6 12 -6 -2z"/>
<path d="M5625 10129 c-63 -47 -66 -57 -5 -14 30 21 57 40 59 42 2 2 0 3 -5 3
-5 0 -27 -14 -49 -31z"/>
<path d="M5651 10111 c-29 -22 -58 -45 -65 -52 -12 -14 90 56 114 78 26 24 6
13 -49 -26z"/>
<path d="M5685 10094 l-30 -26 33 22 c17 12 32 23 32 26 0 7 -4 5 -35 -22z"/>
<path d="M5712 10079 c-23 -17 -42 -33 -42 -35 0 -3 20 9 45 27 40 29 51 39
42 39 -2 0 -22 -14 -45 -31z"/>
<path d="M5649 9997 c-70 -51 -125 -94 -123 -96 3 -4 254 178 254 185 0 7 1 7
-131 -89z"/>
<path d="M5779 10049 l-24 -20 28 17 c15 9 27 18 27 20 0 8 -8 4 -31 -17z"/>
<path d="M5795 10024 l-30 -26 33 22 c17 12 32 23 32 26 0 7 -4 5 -35 -22z"/>
<path d="M5690 9989 c-78 -57 -87 -70 -12 -19 54 37 82 61 70 60 -2 -1 -28
-19 -58 -41z"/>
<path d="M5815 10002 c-34 -30 -25 -27 19 6 16 12 25 22 20 22 -5 0 -23 -13
-39 -28z"/>
<path d="M5725 9974 l-30 -26 33 22 c17 12 32 23 32 26 0 7 -4 5 -35 -22z"/>
<path d="M4165 9749 c-38 -27 -74 -55 -80 -61 -12 -13 123 79 145 98 27 26 5
13 -65 -37z"/>
<path d="M4176 9720 c-60 -43 -114 -84 -120 -91 -6 -7 5 -2 24 12 171 122 210
151 210 155 0 7 0 6 -114 -76z"/>
<path d="M4136 9765 c-11 -8 -15 -15 -9 -15 6 0 16 7 23 15 16 19 11 19 -14 0z"/>
<path d="M4333 9609 c-43 -30 -58 -48 -25 -30 21 12 79 60 72 60 -3 0 -24 -13
-47 -30z"/>
<path d="M6036 9565 c-9 -14 -12 -25 -7 -25 12 0 35 39 28 46 -2 3 -12 -7 -21
-21z"/>
<path d="M3990 9475 c-7 -9 -10 -18 -7 -21 3 -3 10 4 17 15 13 25 8 27 -10 6z"/>
<path d="M5990 9348 c-72 -125 -95 -159 -104 -151 -4 4 -4 0 0 -10 3 -9 9 -17
13 -17 9 1 154 260 148 266 -2 2 -28 -37 -57 -88z"/>
<path d="M5997 9263 c-36 -59 -70 -107 -76 -106 -15 4 -2 -25 15 -31 8 -3 13
-2 10 3 -3 4 24 59 59 121 36 63 63 115 61 117 -2 3 -33 -44 -69 -104z"/>
<path d="M5740 9322 c0 -19 27 -79 38 -86 7 -4 8 3 2 23 -10 35 -40 82 -40 63z"/>
<path d="M5527 9216 c-10 -14 -26 -26 -37 -26 -24 0 -26 -15 -4 -24 11 -4 14
-13 10 -31 -6 -25 7 -35 20 -14 3 6 19 9 35 5 26 -5 29 -3 29 21 0 15 7 35 17
45 15 17 15 18 -7 18 -12 0 -28 7 -35 16 -10 14 -13 13 -28 -10z"/>
<path d="M5700 9170 c-6 -11 -23 -25 -37 -31 -24 -9 -24 -11 -10 -27 10 -11
14 -26 10 -42 -6 -23 -6 -23 17 -7 14 10 33 14 47 11 19 -5 23 -2 23 17 0 12
7 31 17 41 10 11 12 18 5 19 -7 1 -17 2 -23 3 -6 0 -17 9 -24 19 -13 18 -14
18 -25 -3z"/>
<path d="M5862 9163 c15 -36 29 -55 36 -48 7 6 -30 75 -40 75 -4 0 -2 -12 4
-27z"/>
<path d="M5842 9113 c15 -36 29 -55 36 -48 7 6 -30 75 -40 75 -4 0 -2 -12 4
-27z"/>
<path d="M5271 9096 c-7 -8 -10 -20 -6 -25 3 -6 -6 -13 -20 -17 -29 -7 -32
-19 -9 -28 11 -4 14 -13 10 -31 -6 -25 7 -35 19 -15 3 6 17 10 31 10 19 0 24
5 24 27 0 14 7 35 17 45 15 17 15 18 -10 18 -14 0 -30 7 -35 16 -8 14 -10 14
-21 0z"/>
<path d="M5810 9098 c0 -17 34 -98 41 -98 16 0 9 28 -16 66 -14 20 -25 35 -25
32z"/>
<path d="M5567 9064 c-8 -8 1 -24 13 -24 4 0 10 7 14 15 5 15 -14 21 -27 9z"/>
<path d="M5435 9041 c-4 -13 -20 -27 -37 -33 -29 -10 -30 -12 -13 -24 12 -9
16 -21 13 -39 -6 -28 3 -32 22 -10 8 9 21 13 36 9 20 -5 24 -3 24 19 0 13 7
30 15 37 20 17 19 31 -1 23 -11 -4 -23 2 -34 17 l-18 23 -7 -22z"/>
<path d="M5977 9020 c11 -28 20 -37 26 -31 7 7 5 17 -6 29 -9 10 -17 24 -17
30 0 7 -4 12 -9 12 -5 0 -2 -18 6 -40z"/>
<path d="M5598 8980 c-10 -18 -25 -30 -38 -30 -24 0 -27 -15 -4 -24 12 -5 15
-14 10 -36 -5 -30 -5 -30 19 -14 14 9 32 13 45 9 16 -5 20 -2 20 18 0 14 7 30
15 37 22 18 18 30 -8 30 -14 0 -28 8 -33 20 -8 19 -10 18 -26 -10z"/>
<path d="M5954 8997 c3 -11 9 -30 12 -43 3 -13 10 -24 15 -24 14 0 10 17 -12
52 -12 18 -18 25 -15 15z"/>
<path d="M5935 8943 c4 -10 10 -28 12 -40 3 -13 9 -23 12 -23 18 0 18 14 -1
46 -21 36 -35 46 -23 17z"/>
<path d="M5772 8926 c-6 -14 -23 -28 -37 -32 -24 -6 -25 -7 -9 -25 11 -12 14
-27 10 -44 -7 -26 -6 -26 19 -9 16 10 34 14 51 10 23 -6 25 -4 22 18 -1 13 5
33 16 45 19 21 19 21 -6 21 -15 0 -31 9 -40 21 l-14 21 -12 -26z"/>
<path d="M5865 8920 c3 -5 8 -10 11 -10 2 0 4 5 4 10 0 6 -5 10 -11 10 -5 0
-7 -4 -4 -10z"/>
<path d="M5910 8896 c0 -10 31 -75 38 -80 14 -9 11 32 -4 45 -8 6 -14 18 -14
25 0 8 -4 14 -10 14 -5 0 -10 -2 -10 -4z"/>
<path d="M5890 8842 c0 -14 38 -102 44 -102 3 0 4 10 3 23 -1 22 -47 99 -47
79z"/>
<path d="M5643 8822 c-13 -8 -5 -26 15 -29 13 -3 17 23 4 31 -4 2 -13 1 -19
-2z"/>
<path d="M6045 8813 c4 -10 10 -28 12 -40 3 -13 9 -23 14 -23 13 0 11 17 -6
50 -17 32 -32 42 -20 13z"/>
<path d="M5502 8796 c-6 -14 -23 -28 -37 -32 -24 -6 -25 -7 -9 -25 11 -13 14
-27 10 -45 -7 -27 -7 -27 18 -10 17 11 35 14 52 10 24 -6 26 -5 19 15 -5 16
-1 29 16 47 l22 24 -25 0 c-15 0 -31 9 -40 21 l-14 21 -12 -26z"/>
<path d="M6037 8730 c9 -22 20 -40 25 -40 13 0 10 15 -9 49 -25 44 -34 38 -16
-9z"/>
<path d="M6010 8712 c0 -7 7 -29 17 -50 11 -25 17 -32 20 -21 2 9 -5 32 -16
50 -12 19 -21 28 -21 21z"/>
<path d="M2994 8528 l-19 -23 23 19 c21 18 27 26 19 26 -2 0 -12 -10 -23 -22z"/>
<path d="M2841 7674 c-40 -38 -76 -82 -82 -101 -12 -36 -2 -173 13 -173 5 0
18 16 29 35 12 20 30 40 40 46 27 14 59 82 59 126 0 21 5 58 11 82 5 24 8 46
5 48 -3 3 -37 -25 -75 -63z"/>
<path d="M3147 7683 c-12 -14 -34 -38 -48 -52 -42 -43 -59 -76 -60 -117 -1
-54 12 -154 21 -154 4 0 15 17 26 37 10 21 29 46 41 55 12 10 28 37 37 61 17
48 28 197 14 197 -5 0 -19 -12 -31 -27z"/>
<path d="M8512 7680 c0 -14 2 -19 5 -12 2 6 2 18 0 25 -3 6 -5 1 -5 -13z"/>
<path d="M6730 7655 c0 -8 4 -15 10 -15 5 0 7 7 4 15 -4 8 -8 15 -10 15 -2 0
-4 -7 -4 -15z"/>
<path d="M7830 7660 c0 -5 5 -10 11 -10 5 0 7 5 4 10 -3 6 -8 10 -11 10 -2 0
-4 -4 -4 -10z"/>
<path d="M7310 7650 c0 -5 10 -15 23 -21 22 -12 22 -12 3 10 -21 23 -26 26
-26 11z"/>
<path d="M6115 7630 c-3 -5 -4 -10 0 -10 3 0 -2 -16 -10 -37 -8 -20 -13 -38
-11 -40 5 -6 25 30 37 66 8 22 8 20 5 -11 -3 -21 -1 -40 5 -43 5 -4 6 2 2 12
-6 16 -5 16 10 4 19 -15 22 -9 8 17 -5 9 -12 25 -15 35 -6 19 -21 23 -31 7z"/>
<path d="M6301 7624 c0 -11 3 -14 6 -6 3 7 2 16 -1 19 -3 4 -6 -2 -5 -13z"/>
<path d="M6407 7615 c-4 -11 -10 -27 -13 -35 -3 -8 1 -5 11 8 9 12 15 28 13
34 -3 7 -7 4 -11 -7z"/>
<path d="M6262 7600 c14 -22 24 -19 15 5 -4 8 -11 15 -17 15 -6 0 -6 -7 2 -20z"/>
<path d="M8210 7600 c0 -5 5 -10 11 -10 5 0 7 5 4 10 -3 6 -8 10 -11 10 -2 0
-4 -4 -4 -10z"/>
<path d="M6840 7580 c-8 -5 -10 -10 -5 -10 6 0 17 5 25 10 8 5 11 10 5 10 -5
0 -17 -5 -25 -10z"/>
<path d="M6140 7520 c0 -5 5 -10 10 -10 6 0 10 5 10 10 0 6 -4 10 -10 10 -5 0
-10 -4 -10 -10z"/>
<path d="M2651 7456 c-12 -18 -21 -37 -21 -42 0 -5 -11 -19 -24 -31 -36 -34
-41 -92 -15 -180 18 -58 25 -71 35 -62 7 6 16 26 20 45 3 19 10 34 16 34 5 0
18 21 29 46 19 42 20 51 8 135 -7 49 -16 89 -20 89 -4 0 -17 -15 -28 -34z"/>
<path d="M2941 7419 c-12 -19 -21 -38 -21 -43 0 -6 -10 -20 -21 -33 -32 -33
-36 -106 -11 -169 11 -27 23 -58 27 -69 6 -20 7 -20 21 -1 8 11 14 32 14 48 0
15 4 28 9 28 15 0 41 67 41 107 -1 38 -24 150 -34 160 -3 3 -14 -10 -25 -28z"/>
<path d="M5307 7377 c-3 -8 -2 -20 3 -26 5 -9 8 -4 8 13 0 29 -3 32 -11 13z"/>
<path d="M4280 7332 c0 -5 -10 -8 -21 -8 -12 1 -23 -5 -25 -12 -1 -7 0 -8 3
-2 2 5 11 10 19 10 9 0 13 -4 9 -9 -3 -5 -2 -12 3 -15 4 -2 13 4 20 14 7 12 8
21 2 25 -6 3 -10 2 -10 -3z"/>
<path d="M4397 7260 c-3 -11 -2 -20 2 -20 5 0 8 -13 9 -30 0 -16 6 -37 12 -47
10 -16 10 -15 5 5 -4 12 -2 22 3 22 6 0 5 16 -2 39 -14 49 -22 58 -29 31z"/>
<path d="M3870 7248 c0 -9 5 -20 10 -23 13 -8 13 5 0 25 -8 13 -10 13 -10 -2z"/>
<path d="M4527 7219 c7 -7 15 -10 18 -7 3 3 -2 9 -12 12 -14 6 -15 5 -6 -5z"/>
<path d="M4791 7204 c0 -11 3 -14 6 -6 3 7 2 16 -1 19 -3 4 -6 -2 -5 -13z"/>
<path d="M2490 7191 c-5 -11 -10 -29 -10 -41 0 -11 -10 -34 -22 -51 -30 -41
-30 -116 2 -191 13 -32 27 -58 31 -58 5 0 14 19 20 43 7 23 21 53 31 66 24 32
23 102 -2 185 -22 69 -32 79 -50 47z"/>
<path d="M4485 7190 c-3 -5 -1 -10 4 -10 6 0 11 5 11 10 0 6 -2 10 -4 10 -3 0
-8 -4 -11 -10z"/>
<path d="M2796 7141 c-9 -16 -16 -41 -16 -54 0 -14 -7 -30 -15 -37 -25 -21
-19 -111 13 -185 15 -36 30 -65 34 -65 4 0 12 19 19 43 6 23 19 58 29 77 14
27 16 46 10 85 -6 42 -43 151 -55 163 -2 2 -11 -10 -19 -27z"/>
<path d="M2372 6900 c-7 -11 -12 -31 -12 -44 0 -14 -10 -41 -21 -61 -28 -46
-22 -117 15 -199 22 -50 28 -57 41 -46 8 7 15 29 15 49 0 20 7 45 15 55 24 32
19 123 -11 197 -14 35 -27 65 -28 66 -1 1 -7 -7 -14 -17z"/>
<path d="M2692 6846 c-7 -15 -12 -38 -12 -52 0 -14 -7 -39 -16 -56 -23 -44
-14 -109 26 -191 38 -77 49 -76 63 5 23 134 21 168 -15 247 -33 72 -34 73 -46
47z"/>
<path d="M2261 6574 c-6 -14 -11 -35 -11 -47 -1 -12 -7 -33 -15 -47 -17 -30
-19 -78 -4 -117 18 -48 81 -155 87 -148 6 6 18 76 28 166 5 38 0 60 -25 117
-17 39 -31 75 -31 81 0 22 -18 19 -29 -5z"/>
<path d="M2600 6511 c-6 -23 -10 -47 -9 -54 1 -6 -5 -28 -14 -49 -15 -32 -15
-42 -3 -81 19 -64 98 -181 108 -162 5 8 9 63 11 122 l2 108 -42 78 -42 79 -11
-41z"/>
<path d="M2192 6245 c-7 -14 -12 -41 -12 -60 0 -19 -4 -37 -10 -40 -15 -9 -12
-100 4 -139 7 -18 26 -52 41 -75 31 -51 46 -45 51 21 2 24 6 70 10 104 6 56 4
65 -33 138 -38 76 -39 77 -51 51z"/>
<path d="M2549 6173 c-6 -15 -8 -35 -6 -45 3 -9 -1 -36 -9 -58 -11 -31 -12
-51 -4 -78 13 -49 81 -163 94 -159 6 2 15 51 20 109 l8 106 -42 76 c-23 42
-43 76 -46 76 -2 0 -9 -12 -15 -27z"/>
<path d="M8355 6064 c2 -35 32 -104 44 -104 14 0 8 34 -9 48 -9 8 -10 11 -2 7
10 -6 10 0 -2 21 -29 54 -34 59 -31 28z"/>
<path d="M8319 6053 c0 -10 -2 -29 -5 -42 -2 -13 1 -29 7 -37 8 -9 5 -15 -10
-24 -18 -9 -21 -8 -21 12 0 19 -2 20 -10 8 -9 -13 -11 -13 -20 0 -8 13 -10 12
-10 -3 0 -10 -4 -16 -10 -12 -5 3 -7 12 -4 19 3 8 0 17 -6 21 -7 4 -10 0 -8
-11 2 -12 -2 -18 -11 -16 -8 2 -11 -3 -8 -13 4 -8 2 -15 -3 -15 -6 0 -10 11
-10 25 0 18 -4 23 -16 18 -11 -4 -22 1 -30 12 -11 14 -14 15 -14 4 0 -8 5 -20
12 -27 6 -6 8 -15 4 -19 -4 -4 -11 -1 -16 7 -8 12 -10 11 -10 -5 0 -17 -2 -17
-10 -5 -8 13 -10 12 -10 -4 0 -20 0 -20 -16 0 -14 18 -15 16 -10 -31 3 -31 2
-42 -3 -30 -8 19 -9 18 -13 -5 -5 -23 -5 -23 -7 -2 0 12 -7 22 -15 22 -8 0
-18 9 -21 20 -9 27 -25 26 -20 -1 3 -12 1 -29 -4 -37 -6 -11 -11 -7 -20 20
-16 47 -45 48 -36 1 5 -26 3 -33 -10 -33 -8 0 -15 -4 -15 -10 0 -5 4 -10 9
-10 5 0 12 -8 16 -17 5 -14 4 -15 -6 -6 -10 10 -16 9 -30 -3 -20 -18 -36 -12
-50 20 -7 16 -8 14 -4 -14 5 -32 4 -33 -5 -10 -9 20 -13 22 -20 10 -9 -13 -10
-13 -10 0 -1 8 -8 2 -18 -15 l-17 -30 -3 25 c-2 14 -8 30 -14 35 -7 7 -9 3 -5
-12 6 -27 4 -28 -17 -7 -15 14 -16 14 -16 -1 0 -9 -4 -13 -10 -10 -5 3 -10 1
-10 -4 0 -6 -4 -11 -10 -11 -5 0 -10 7 -10 16 0 8 -4 13 -9 10 -5 -4 -7 2 -5
11 3 10 -2 27 -10 38 -12 15 -16 17 -17 5 0 -8 -5 -4 -9 10 l-8 25 -1 -25 c-1
-26 -21 -66 -21 -43 0 8 -7 10 -17 6 -16 -6 -17 -5 -3 12 9 11 10 16 3 11 -8
-4 -13 -1 -13 8 0 9 -6 16 -12 16 -9 0 -8 4 2 10 13 9 13 10 0 10 -8 0 -26
-17 -39 -38 -13 -22 -32 -39 -44 -39 -11 -1 -33 -15 -50 -30 -17 -15 -27 -22
-23 -15 10 17 -14 15 -35 -4 -12 -11 -23 -13 -35 -6 -11 6 -13 11 -5 16 17 11
14 46 -4 40 -8 -4 -15 -1 -15 5 0 6 4 11 9 11 4 0 6 11 3 25 -2 14 -10 25 -17
25 -8 0 -11 -8 -8 -20 3 -11 0 -20 -6 -20 -5 0 -8 -8 -5 -17 5 -14 4 -15 -4
-4 -7 10 -11 10 -17 1 -5 -8 -11 -6 -21 7 -7 10 -14 14 -14 8 0 -5 -6 0 -14
11 -8 11 -13 32 -12 46 5 44 -11 57 -35 29 -16 -19 -22 -22 -29 -12 -11 18
-23 -19 -14 -43 3 -9 1 -16 -6 -16 -6 0 -8 5 -5 10 3 6 1 10 -4 10 -6 0 -11
-4 -11 -10 0 -22 -21 -8 -34 23 -8 17 -15 25 -15 16 -2 -26 -32 -80 -42 -74
-5 4 -9 1 -9 -4 0 -6 -4 -11 -10 -11 -5 0 -10 9 -10 20 0 24 -6 25 -28 3 -16
-16 -16 -16 1 -10 19 7 20 6 11 -17 -3 -8 -12 -12 -20 -9 -8 3 -14 1 -14 -3
-1 -5 -12 -22 -26 -39 -15 -17 -24 -22 -20 -12 6 20 -5 22 -22 5 -9 -9 -12 -8
-12 5 0 9 -4 18 -10 18 -5 1 -15 2 -21 3 -6 0 -17 12 -24 26 -17 29 -19 22 -5
-14 5 -15 6 -26 1 -26 -5 0 -11 4 -13 10 -2 6 -15 4 -32 -5 -26 -14 -27 -14
-16 0 17 20 22 65 7 62 -7 -1 -11 6 -11 15 1 10 -4 14 -12 11 -9 -3 -14 2 -14
13 0 11 -9 30 -19 43 -16 21 -19 21 -24 7 -4 -10 -11 -14 -17 -11 -15 9 -13
-68 3 -84 10 -11 10 -13 0 -7 -7 4 -13 3 -13 -2 0 -14 26 -33 34 -25 4 4 4 -1
0 -11 -7 -17 -8 -17 -17 -1 -8 14 -11 15 -18 4 -6 -10 -9 -8 -9 8 0 12 -4 25
-10 28 -16 10 -12 -28 6 -53 9 -13 14 -25 12 -28 -3 -2 -11 7 -18 21 -16 29
-25 31 -38 9 -8 -15 -10 -15 -15 0 -5 12 -3 15 6 10 6 -4 8 -3 4 1 -13 15 -39
15 -33 0 3 -8 1 -17 -5 -20 -5 -4 -6 -12 -3 -18 4 -7 3 -8 -2 -4 -5 5 -9 12
-9 15 0 4 -4 13 -9 21 -7 10 -6 12 4 6 9 -6 11 -4 6 4 -5 7 -11 10 -14 7 -3
-3 -14 1 -24 11 -21 19 -35 12 -15 -8 7 -8 16 -25 20 -39 l6 -25 -20 24 c-10
13 -19 18 -19 12 0 -7 -5 -9 -12 -5 -8 5 -9 2 -5 -9 7 -20 -8 -23 -17 -4 -8
17 -1 -43 8 -68 7 -20 7 -20 -5 0 -12 19 -12 19 -20 0 -7 -17 -8 -18 -8 -2 -1
9 -6 17 -13 17 -6 0 -20 8 -30 17 -18 16 -18 16 -12 -3 4 -10 12 -26 19 -34 7
-8 15 -22 19 -30 4 -8 -1 -4 -12 9 -13 17 -21 20 -27 12 -4 -8 -13 -1 -24 20
-10 18 -25 33 -34 35 -20 3 -21 -3 -2 -36 19 -32 18 -40 -1 -40 -14 0 -14 -1
0 -16 20 -19 20 -25 1 -18 -10 4 -16 -3 -20 -23 -11 -46 -13 -49 -20 -25 -4
12 -12 22 -17 22 -5 0 -6 -4 -3 -10 11 -17 -7 -11 -21 8 -10 12 -13 13 -14 3
0 -11 -3 -11 -17 0 -11 9 -14 10 -9 2 4 -7 3 -21 -3 -30 -9 -16 -11 -15 -20
10 -12 31 -26 37 -16 7 7 -23 -5 -26 -24 -7 -10 10 -11 9 -5 -6 5 -13 2 -16
-10 -11 -11 4 -16 0 -16 -12 -1 -18 -1 -18 -11 -1 -6 9 -14 15 -20 12 -5 -3
-6 0 -3 8 2 7 -4 25 -15 38 -15 17 -21 20 -22 9 0 -8 -5 -4 -9 10 -7 21 -8 19
-9 -17 -1 -49 -12 -60 -32 -31 -8 11 -20 26 -26 33 -10 11 -10 14 0 18 6 2 9
8 5 12 -12 13 -34 -12 -48 -55 -7 -22 -17 -40 -22 -40 -5 0 -6 -6 -2 -12 5
-10 3 -10 -7 0 -11 11 -19 7 -42 -20 -16 -18 -26 -27 -22 -20 10 20 -6 14 -31
-13 -14 -15 -25 -21 -29 -14 -5 7 -11 6 -21 -2 -9 -7 -14 -8 -14 -1 0 6 4 13
9 16 5 3 11 15 14 26 4 17 2 20 -14 15 -21 -7 -27 10 -6 18 10 4 10 6 0 6 -7
1 -13 7 -13 15 0 8 -3 17 -8 20 -4 2 -7 -11 -6 -31 2 -26 -1 -33 -12 -29 -8 3
-14 0 -14 -6 0 -6 -9 -3 -20 7 -19 17 -20 17 -20 -1 0 -16 -2 -17 -10 -4 -8
12 -10 12 -10 1 0 -32 -13 1 -15 40 -2 22 -8 46 -14 52 -9 9 -10 8 -5 -7 6
-15 4 -18 -9 -13 -9 3 -16 3 -16 -1 4 -23 -2 -52 -10 -48 -5 3 -11 -4 -14 -15
-3 -12 -10 -18 -15 -15 -5 3 -22 -12 -38 -34 -36 -49 -51 -55 -60 -27 -3 12
-15 30 -25 40 -18 17 -19 16 -25 -10 -4 -15 -14 -38 -21 -52 l-15 -26 6 27 c5
22 3 26 -9 22 -8 -4 -15 -2 -15 4 0 6 6 13 13 15 7 3 4 6 -6 6 -10 1 -15 6
-12 11 3 6 -2 10 -12 11 -13 0 -12 3 7 10 20 8 22 12 10 20 -11 7 -23 0 -46
-28 -18 -20 -42 -38 -54 -40 -12 -2 -34 -12 -49 -22 -14 -10 -32 -16 -39 -14
-7 3 -27 -1 -43 -7 -24 -10 -32 -10 -42 0 -9 10 -9 11 2 5 9 -5 12 -4 7 3 -12
19 -26 14 -26 -10 0 -19 -2 -20 -10 -8 -8 13 -10 12 -10 -3 0 -16 -2 -17 -15
-3 -19 18 -19 26 -1 26 22 0 28 16 11 30 -13 11 -14 10 -9 -5 5 -13 4 -16 -5
-11 -6 4 -9 16 -6 27 4 10 2 19 -3 19 -5 0 -10 6 -9 13 1 43 -4 77 -13 72 -5
-3 -7 -13 -4 -23 5 -16 5 -16 -6 1 -14 21 -30 22 -30 2 0 -17 -16 -21 -22 -5
-2 6 -9 0 -17 -12 -13 -21 -13 -22 2 -9 22 18 23 -4 2 -25 -13 -14 -16 -13
-25 10 -9 25 -30 36 -30 16 0 -5 5 -10 10 -10 6 0 9 -10 9 -22 -1 -17 -2 -19
-6 -5 -5 20 -19 22 -27 5 -3 -7 -3 -1 0 15 4 16 2 27 -5 27 -6 0 -11 -10 -11
-22 0 -18 -2 -20 -10 -8 -8 12 -10 12 -16 -4 -5 -14 -9 -15 -15 -4 -5 7 -9 20
-9 28 0 12 2 12 9 1 5 -7 11 -9 14 -4 3 5 -8 16 -25 26 l-30 17 4 -25 c3 -14
1 -25 -3 -25 -5 0 -9 8 -9 18 0 14 -2 15 -10 2 -8 -13 -10 -13 -10 -1 0 11 -4
9 -15 -5 -13 -18 -14 -18 -15 -1 0 29 -20 9 -20 -20 0 -15 -3 -23 -7 -20 -3 4
-12 -1 -20 -11 -11 -15 -12 -13 -3 11 13 36 13 37 -4 37 -8 0 -17 8 -21 18 -6
16 -7 16 -16 -1 -6 -9 -7 -22 -3 -29 4 -6 3 -8 -4 -4 -5 3 -13 0 -15 -6 -3 -7
-6 2 -6 20 -1 18 -8 40 -16 48 -12 13 -15 10 -21 -21 -3 -19 -10 -35 -16 -35
-5 0 -6 5 -3 10 3 6 2 10 -3 10 -14 0 -23 -28 -12 -35 6 -4 10 -14 9 -23 0
-11 -3 -12 -6 -4 -7 17 -20 15 -44 -9 -11 -11 -19 -15 -18 -7 1 7 0 29 -1 48
l-3 35 -7 -35 c-5 -26 -8 -29 -9 -11 -1 20 -3 21 -16 11 -12 -10 -15 -9 -15 5
0 15 -3 14 -21 -6 l-21 -24 2 25 c4 41 -1 57 -10 30 l-7 -25 -11 25 c-6 14
-11 18 -11 10 -1 -19 -41 -21 -41 -3 0 7 -5 13 -10 13 -6 0 -6 7 1 19 14 21 5
56 -12 45 -8 -4 -8 0 0 15 19 34 5 24 -28 -21 -17 -23 -31 -37 -31 -32 0 6 5
15 12 22 9 9 9 12 -1 12 -7 0 -9 5 -6 10 3 6 1 10 -5 10 -7 0 -8 6 0 19 5 11
10 22 10 25 0 12 -34 5 -50 -9 -10 -9 -30 -18 -46 -21 -16 -2 -46 -11 -67 -20
-21 -8 -36 -10 -32 -4 8 13 -25 13 -45 0 -22 -14 -32 20 -12 43 14 15 13 17
-1 17 -23 0 -22 20 1 21 9 0 12 3 6 5 -6 3 -9 16 -6 31 3 18 1 24 -7 19 -6 -4
-9 -12 -6 -17 4 -5 -2 -12 -12 -15 -10 -3 -26 -10 -36 -15 -9 -5 -17 -6 -16
-2 3 19 -2 34 -9 29 -4 -2 -14 5 -22 17 -12 20 -12 21 3 8 15 -12 17 -11 17 3
0 9 -6 16 -14 16 -8 0 -16 7 -20 15 -3 8 -1 15 4 15 6 0 10 12 9 28 0 25 -2
23 -19 -16 -11 -23 -16 -50 -13 -59 4 -10 2 -14 -4 -10 -6 4 -14 1 -16 -5 -3
-7 -6 6 -6 30 -1 24 -5 41 -10 38 -5 -4 -12 0 -14 6 -5 12 -10 -15 -10 -54 0
-9 -5 -14 -13 -11 -7 2 -10 12 -7 20 5 11 3 14 -6 9 -8 -5 -10 -18 -6 -35 4
-14 3 -23 -1 -18 -4 4 -18 0 -30 -8 -15 -9 -25 -11 -29 -5 -4 6 -11 8 -16 5
-5 -4 -9 4 -9 17 0 18 -2 20 -10 8 -7 -11 -10 -11 -10 -2 0 7 -4 11 -8 8 -4
-2 -9 5 -9 16 -1 12 -9 28 -18 37 -13 14 -15 13 -16 -4 -1 -13 -4 -9 -9 10 -7
28 -8 28 -9 -12 -1 -47 -10 -58 -29 -37 -7 8 -9 14 -5 14 4 0 2 4 -5 9 -7 4
-14 16 -16 25 -4 28 -20 20 -40 -20 -10 -22 -23 -41 -29 -43 -6 -2 -22 -16
-36 -30 -14 -14 -32 -26 -39 -27 -8 -2 -22 -10 -31 -18 -28 -26 -44 -20 -38
13 5 26 4 28 -16 24 -18 -4 -19 -3 -7 7 11 9 12 13 3 17 -7 2 -13 11 -13 18 0
23 -16 25 -38 4 l-22 -20 0 21 c0 36 -15 22 -57 -52 -214 -384 -226 -414 -221
-548 3 -84 7 -103 36 -160 31 -62 151 -202 181 -211 11 -4 1 -25 -36 -80 -89
-132 -184 -300 -274 -483 -169 -341 -219 -501 -226 -723 -3 -81 -9 -140 -15
-137 -4 3 -8 11 -7 17 7 55 -32 105 -134 174 -54 37 -87 85 -87 127 l0 30 32
-31 c36 -33 108 -83 120 -83 14 0 9 45 -8 68 -18 27 -17 123 3 164 23 48 16
117 -20 187 -35 70 -52 84 -62 50 -6 -19 -10 -17 -34 24 -14 24 -57 70 -95
102 l-69 58 7 -44 c4 -24 11 -64 15 -89 10 -67 35 -101 113 -154 69 -48 98
-88 98 -136 0 -17 -12 -11 -72 36 -65 50 -73 54 -76 36 -2 -11 3 -33 11 -49
21 -42 21 -150 1 -181 -23 -34 -13 -103 25 -186 17 -36 31 -70 31 -76 0 -16
18 -12 29 8 6 9 11 12 11 5 0 -30 54 -72 131 -104 80 -33 110 -59 122 -107 5
-21 4 -21 -21 -7 -15 8 -56 25 -90 39 l-64 24 7 -26 c3 -14 16 -35 28 -47 34
-32 32 -61 -10 -105 -135 -147 -147 -277 -53 -582 17 -53 30 -106 30 -117 0
-53 -59 -145 -85 -135 -7 3 -25 23 -39 44 -17 26 -42 46 -78 62 -28 13 -76 35
-105 49 l-54 26 6 -31 c4 -17 14 -42 23 -55 32 -45 42 -66 42 -87 0 -50 83
-80 175 -63 68 12 116 6 138 -19 15 -16 10 -19 -65 -41 -69 -21 -86 -23 -122
-13 -40 10 -43 9 -116 -36 -41 -26 -91 -55 -111 -65 -20 -10 -73 -54 -118 -98
-70 -68 -80 -82 -71 -98 13 -24 52 -37 160 -51 47 -6 134 -18 193 -26 93 -13
146 -14 365 -4 292 14 470 10 591 -14 46 -9 151 -25 234 -36 82 -11 229 -38
326 -59 205 -46 231 -49 491 -62 107 -5 238 -14 290 -19 52 -6 262 -14 465
-20 397 -10 423 -13 635 -72 262 -74 405 -82 649 -37 320 59 390 71 536 89 88
11 225 29 305 40 80 11 195 25 255 31 61 5 189 23 285 39 96 15 254 38 350 49
96 12 231 29 300 37 132 17 444 93 693 168 81 25 189 55 240 66 396 93 432
109 444 199 5 34 1 46 -26 82 -17 24 -31 53 -31 66 0 33 -32 58 -118 89 -70
26 -86 37 -166 119 -115 117 -226 283 -226 338 0 35 -8 47 -68 111 -140 146
-148 170 -89 248 190 248 208 368 91 605 -44 90 -46 96 -55 225 -5 73 -17 173
-25 223 -12 66 -14 118 -9 195 7 114 11 122 113 270 31 47 42 72 42 101 0 21
5 41 10 44 6 3 10 22 10 40 0 26 -10 46 -45 85 -66 74 -69 83 -51 137 10 30
16 81 16 142 l0 96 -51 90 c-101 177 -119 223 -119 295 0 36 9 99 20 139 12
40 19 79 16 85 -3 7 -5 6 -5 -2 -1 -8 -6 -10 -13 -5 -30 18 -39 12 -33 -20 4
-21 3 -27 -3 -18 -8 11 -10 11 -15 0 -3 -8 -6 -4 -6 9 -1 12 -7 22 -16 22 -9
0 -16 -10 -16 -22 -1 -18 -3 -17 -9 7 -6 26 -8 27 -15 11 -4 -10 -19 -30 -33
-45 -22 -24 -24 -24 -18 -4 4 13 2 24 -5 29 -9 5 -10 2 -6 -9 3 -10 2 -17 -3
-17 -6 0 -10 5 -10 10 0 6 -4 10 -10 10 -5 0 -10 -7 -10 -15 0 -9 -6 -12 -15
-9 -8 4 -15 1 -15 -5 0 -12 -48 -46 -56 -39 -3 3 2 13 11 22 15 15 15 16 -4
16 -12 0 -21 -6 -21 -15 0 -8 -4 -15 -10 -15 -13 0 -13 12 0 46 9 24 9 25 -5
14 -8 -7 -12 -16 -9 -21 12 -20 -15 -7 -29 14 -15 21 -16 21 -7 -11 5 -20 5
-30 -1 -27 -5 4 -9 12 -9 20 0 8 -4 17 -10 20 -6 4 -7 -1 -3 -12 6 -15 5 -16
-9 -5 -14 11 -18 10 -27 -5 -6 -10 -11 -13 -11 -7 0 6 10 24 22 39 l21 28 -21
-12 c-12 -6 -22 -17 -22 -23 0 -23 -39 25 -59 73 -23 52 -31 60 -32 32z
m-1652 -127 c-3 -7 10 -31 29 -51 35 -39 41 -53 14 -32 -26 20 -62 76 -55 87
9 15 18 12 12 -4z m1623 -21 c0 -5 -5 -3 -10 5 -5 8 -10 20 -10 25 0 6 5 3 10
-5 5 -8 10 -19 10 -25z m-130 15 c0 -5 -2 -10 -4 -10 -3 0 -8 5 -11 10 -3 6
-1 10 4 10 6 0 11 -4 11 -10z m-134 -57 c2 -22 1 -23 -12 -6 -17 23 -17 30 -1
30 6 0 13 -11 13 -24z m-816 7 c0 -5 -5 -10 -11 -10 -5 0 -7 5 -4 10 3 6 8 10
11 10 2 0 4 -4 4 -10z m-4070 -107 c-1 -13 -30 -48 -30 -36 0 7 5 15 10 18 6
4 8 11 5 16 -4 5 -1 9 4 9 6 0 11 -3 11 -7z m3370 -28 c0 -8 -40 9 -51 21 -8
10 -3 10 20 -2 17 -9 31 -17 31 -19z m-2773 3 c-3 -8 -6 -5 -6 6 -1 11 2 17 5
13 3 -3 4 -12 1 -19z m2713 -62 c0 -3 -4 -8 -10 -11 -5 -3 -10 -1 -10 4 0 6 5
11 10 11 6 0 10 -2 10 -4z m-1783 -185 c0 -11 -7 -17 -14 -14 -9 4 -9 8 0 19
16 17 16 17 14 -5z m-2055 -2444 c61 -22 89 -48 103 -96 6 -18 4 -23 -6 -18
-8 3 -43 18 -79 32 -74 31 -116 67 -126 110 l-7 29 27 -17 c14 -10 54 -28 88
-40z m160 -328 c31 -30 38 -44 38 -75 l0 -38 -27 26 c-16 13 -44 35 -63 46
-61 38 -71 49 -85 95 l-13 44 56 -31 c30 -17 73 -47 94 -67z m62 -362 c5 -25
2 -46 -10 -69 l-16 -32 -13 38 c-8 21 -27 55 -43 75 -42 52 -52 75 -52 116 l0
37 64 -64 c46 -47 65 -75 70 -101z m-158 -162 c10 -41 -5 -96 -36 -127 -24
-23 -37 -28 -79 -28 -57 0 -76 15 -30 24 45 9 89 57 89 98 0 56 44 81 56 33z
m110 -13 c-9 -17 -20 -33 -26 -37 -5 -3 0 12 12 34 12 23 23 39 26 37 2 -2 -4
-18 -12 -34z m-308 -129 c-10 -2 -28 -2 -40 0 -13 2 -5 4 17 4 22 1 32 -1 23
-4z"/>
<path d="M8290 6020 c0 -11 2 -20 4 -20 2 0 6 9 9 20 3 11 1 20 -4 20 -5 0 -9
-9 -9 -20z"/>
<path d="M7101 5994 c0 -11 3 -14 6 -6 3 7 2 16 -1 19 -3 4 -6 -2 -5 -13z"/>
<path d="M8250 6000 c0 -5 7 -10 16 -10 8 0 12 5 9 10 -3 6 -10 10 -16 10 -5
0 -9 -4 -9 -10z"/>
<path d="M7990 5983 c0 -4 5 -15 10 -23 8 -13 10 -13 10 2 0 9 -4 20 -10 23
-5 3 -10 3 -10 -2z"/>
<path d="M8300 5970 c0 -5 5 -10 11 -10 5 0 7 5 4 10 -3 6 -8 10 -11 10 -2 0
-4 -4 -4 -10z"/>
<path d="M7086 5948 c-3 -13 -6 -32 -6 -42 0 -29 16 -7 23 32 7 36 -7 44 -17
10z"/>
<path d="M2115 5903 c-3 -21 -9 -49 -12 -63 -3 -14 -6 -48 -6 -76 -1 -50 21
-92 92 -184 l19 -24 5 34 c19 134 13 180 -34 268 -24 45 -47 82 -51 82 -4 0
-10 -17 -13 -37z"/>
<path d="M6545 5900 c10 -11 20 -20 23 -20 3 0 -3 9 -13 20 -10 11 -20 20 -23
20 -3 0 3 -9 13 -20z"/>
<path d="M7266 5894 c-4 -9 -4 -19 -1 -22 2 -3 7 3 11 12 4 9 4 19 1 22 -2 3
-7 -3 -11 -12z"/>
<path d="M6990 5890 c0 -5 5 -10 11 -10 5 0 7 5 4 10 -3 6 -8 10 -11 10 -2 0
-4 -4 -4 -10z"/>
<path d="M2497 5845 c-18 -130 -14 -188 13 -227 60 -84 85 -117 91 -118 3 0 9
38 12 85 7 98 -3 136 -55 213 -18 27 -38 58 -44 68 -10 17 -12 14 -17 -21z"/>
<path d="M6870 5814 c0 -8 5 -12 10 -9 6 3 10 10 10 16 0 5 -4 9 -10 9 -5 0
-10 -7 -10 -16z"/>
<path d="M3562 5780 c0 -14 2 -19 5 -12 2 6 2 18 0 25 -3 6 -5 1 -5 -13z"/>
<path d="M6320 5791 c0 -6 4 -13 10 -16 6 -3 7 1 4 9 -7 18 -14 21 -14 7z"/>
<path d="M3820 5765 c-8 -9 -8 -15 -2 -15 12 0 26 19 19 26 -2 2 -10 -2 -17
-11z"/>
<path d="M6370 5740 c0 -5 5 -10 11 -10 5 0 7 5 4 10 -3 6 -8 10 -11 10 -2 0
-4 -4 -4 -10z"/>
<path d="M6190 5641 c0 -6 4 -13 10 -16 6 -3 7 1 4 9 -7 18 -14 21 -14 7z"/>
<path d="M4535 5607 c-4 -10 -5 -21 -1 -24 10 -10 18 4 13 24 -4 17 -4 17 -12
0z"/>
<path d="M2075 5576 c-4 -19 -4 -43 -1 -54 4 -11 2 -23 -4 -27 -5 -3 -10 -30
-10 -59 0 -45 6 -62 46 -124 25 -40 50 -72 55 -72 11 0 10 -13 15 114 l5 108
-42 69 c-23 38 -45 72 -50 74 -4 3 -11 -10 -14 -29z"/>
<path d="M4781 5600 c0 -8 4 -22 9 -30 12 -18 12 -2 0 25 -6 13 -9 15 -9 5z"/>
<path d="M5623 5575 c-3 -9 -3 -18 -1 -21 3 -3 8 4 11 16 6 23 -1 27 -10 5z"/>
<path d="M2475 5518 c-3 -13 -4 -39 -4 -58 1 -19 -2 -47 -6 -61 -4 -14 -2 -44
4 -66 12 -44 89 -152 108 -153 10 0 12 28 10 113 l-2 112 -48 68 c-27 37 -51
67 -53 67 -2 0 -6 -10 -9 -22z"/>
<path d="M2037 5263 c-3 -10 -9 -55 -12 -100 -7 -77 -5 -86 18 -125 14 -24 46
-63 71 -87 l45 -44 7 27 c3 15 2 37 -3 49 -6 12 -8 36 -6 54 7 44 -13 96 -65
172 -24 37 -46 67 -47 69 -2 2 -6 -5 -8 -15z"/>
<path d="M2455 5201 c-3 -5 -5 -58 -6 -118 0 -59 -1 -121 -1 -138 -2 -33 24
-92 77 -174 41 -64 39 -67 55 117 8 98 8 129 -3 155 -19 44 -115 169 -122 158z"/>
<path d="M2035 4893 c2 -26 5 -52 5 -58 1 -5 0 -26 -1 -46 -3 -51 29 -97 108
-160 l65 -51 -5 38 c-23 156 -26 163 -114 258 l-62 68 4 -49z"/>
<path d="M2424 4736 c-3 -19 -3 -39 0 -45 4 -6 2 -28 -4 -48 -15 -52 -1 -108
46 -187 22 -35 41 -62 44 -60 2 3 8 33 13 67 4 34 10 81 13 103 4 28 0 52 -11
75 -24 48 -79 129 -87 129 -4 0 -10 -15 -14 -34z"/>
<path d="M2084 4560 c4 -25 11 -70 15 -100 4 -30 12 -65 19 -77 13 -23 121
-123 134 -123 12 0 10 68 -2 75 -5 3 -10 23 -10 43 -1 59 -32 113 -100 172
l-63 55 7 -45z"/>
<path d="M2387 4440 c-7 -19 -18 -134 -17 -180 0 -20 19 -72 44 -122 l43 -88
12 40 c7 22 9 45 6 50 -3 6 1 20 9 32 34 47 12 133 -54 218 -15 19 -29 42 -32
50 -5 13 -6 13 -11 0z"/>
<path d="M2166 3464 c-3 -9 -6 -30 -6 -47 -1 -18 -7 -43 -15 -57 -23 -41 -18
-104 17 -186 30 -72 32 -75 44 -52 7 13 13 36 14 52 0 16 8 38 17 48 28 31 21
111 -15 191 -31 68 -45 80 -56 51z"/>
<path d="M2070 3134 c-7 -19 -10 -43 -7 -53 2 -10 -2 -26 -9 -36 -16 -22 -18
-76 -5 -121 9 -31 92 -147 100 -139 5 5 12 105 14 180 0 38 -8 68 -37 128 -21
42 -39 77 -41 77 -2 0 -9 -16 -15 -36z"/>
<path d="M2016 2794 c-3 -16 -2 -42 2 -59 5 -16 5 -48 0 -69 -15 -66 18 -115
121 -180 l44 -28 -7 58 c-3 33 -8 78 -11 102 -4 45 -16 64 -99 156 l-44 50 -6
-30z"/>
</g>
</svg>
